<svg viewBox="0 0 32 32" fill="currentColor" xmlns="http://www.w3.org/2000/svg">
<g id="suggest/close">
<g id="Union">
<path d="M7.37314 26.6065C7.21693 26.7628 6.96366 26.7628 6.80745 26.6065L5.39324 25.1923C5.23703 25.0361 5.23703 24.7829 5.39324 24.6266L14.0199 16L5.39316 7.37328C5.23695 7.21707 5.23695 6.9638 5.39316 6.8076L6.80737 5.39338C6.96358 5.23717 7.21685 5.23717 7.37306 5.39338L15.9998 14.0201L24.6265 5.39334C24.7828 5.23713 25.036 5.23713 25.1922 5.39334L26.6064 6.80756C26.7627 6.96376 26.7627 7.21703 26.6064 7.37324L17.9797 16L26.6064 24.6267C26.7626 24.7829 26.7626 25.0362 26.6064 25.1924L25.1921 26.6066C25.0359 26.7628 24.7827 26.7628 24.6265 26.6066L15.9998 17.9799L7.37314 26.6065Z"/>
</g>
</g>
</svg>
