<svg viewBox="0 0 32 32" fill="currentColor" xmlns="http://www.w3.org/2000/svg">
<g id="suggest/question-circle">
<path id="Union" d="M16 27.5C22.3513 27.5 27.5 22.3513 27.5 16C27.5 9.64872 22.3513 4.5 16 4.5C9.64872 4.5 4.5 9.64872 4.5 16C4.5 22.3513 9.64872 27.5 16 27.5ZM16 30C8.26801 30 2 23.732 2 16C2 8.26801 8.26801 2 16 2C23.732 2 30 8.26801 30 16C30 23.732 23.732 30 16 30ZM17.9628 22.2C17.9628 23.1941 17.1569 24 16.1628 24C15.1687 24 14.3628 23.1941 14.3628 22.2C14.3628 21.2059 15.1687 20.4 16.1628 20.4C17.1569 20.4 17.9628 21.2059 17.9628 22.2ZM13.8437 13.1504C14.0646 13.1504 14.2389 12.9689 14.2886 12.7536C14.4685 11.9747 15.1665 11.3939 16.0001 11.3939C16.9701 11.3939 17.7565 12.1803 17.7565 13.1504C17.7565 13.7106 17.4956 14.2093 17.0836 14.5329C16.6458 14.8768 16.0836 15.3347 15.6325 15.8892C15.1759 16.4505 14.7501 17.2118 14.7501 18.1568V18.5C14.7501 18.7209 14.9292 18.9 15.1501 18.9H16.8501C17.071 18.9 17.2501 18.7209 17.2501 18.5V18.1568C17.2501 17.9973 17.3178 17.7792 17.5719 17.4668C17.8315 17.1477 18.1972 16.8373 18.628 16.4989C19.6173 15.7217 20.2565 14.5103 20.2565 13.1504C20.2565 10.7996 18.3509 8.89392 16.0001 8.89392C13.7841 8.89392 11.9636 10.5874 11.7622 12.7507C11.7417 12.9707 11.9227 13.1504 12.1437 13.1504H13.8437Z"/>
</g>
</svg>
