<svg viewBox="0 0 32 32" fill="currentColor" xmlns="http://www.w3.org/2000/svg">
<g id="suggest/time-circle">
<g id="Union">
<path d="M16 27.5C22.3513 27.5 27.5 22.3513 27.5 16C27.5 9.64872 22.3513 4.5 16 4.5C9.64872 4.5 4.5 9.64872 4.5 16C4.5 22.3513 9.64872 27.5 16 27.5ZM16 30C8.26801 30 2 23.732 2 16C2 8.26801 8.26801 2 16 2C23.732 2 30 8.26801 30 16C30 23.732 23.732 30 16 30ZM15.0824 17.2472C15.1181 17.281 15.1566 17.3126 15.1981 17.3416L20.932 21.3566C21.113 21.4833 21.3624 21.4394 21.4891 21.2584L22.4642 19.8658C22.5909 19.6849 22.5469 19.4355 22.366 19.3087L17.25 15.7265V9.50266C17.25 9.28175 17.0709 9.10266 16.85 9.10266H15.15C14.9291 9.10266 14.75 9.28175 14.75 9.50266V16.5027C14.75 16.7984 14.8784 17.0642 15.0824 17.2472Z"/>
</g>
</g>
</svg>
