<svg viewBox="0 0 32 32" fill="currentColor" xmlns="http://www.w3.org/2000/svg">
<path d="M30 16C30 23.732 23.732 30 16 30C8.26801 30 2 23.732 2 16C2 8.26801 8.26801 2 16 2C23.732 2 30 8.26801 30 16ZM9 17.025C9 17.246 9.17909 17.425 9.4 17.425H14.575V22.6C14.575 22.8209 14.7541 23 14.975 23H17.025C17.246 23 17.425 22.8209 17.425 22.6V17.425H22.6C22.8209 17.425 23 17.246 23 17.025V14.975C23 14.7541 22.8209 14.575 22.6 14.575H17.425V9.4C17.425 9.17909 17.246 9 17.025 9H14.975C14.7541 9 14.575 9.17909 14.575 9.4V14.575H9.4C9.17909 14.575 9 14.7541 9 14.975V17.025Z"/>
</svg>
