<svg  viewBox="0 0 32 32" fill="currentColor" xmlns="http://www.w3.org/2000/svg">
<path d="M12.4972 3.92676C12.1035 3.92676 11.7369 4.1271 11.5243 4.45841L9.53022 7.56587H5.08269C3.38023 7.56587 2.00012 8.94597 2.00012 10.6484V24.9908C2.00012 26.6932 3.38023 28.0733 5.08269 28.0733H26.9176C28.62 28.0733 30.0001 26.6932 30.0001 24.9908V10.6484C30.0001 8.94596 28.62 7.56587 26.9176 7.56587H22.47L20.4759 4.45841C20.2633 4.1271 19.8967 3.92676 19.503 3.92676H12.4972ZM25.0184 9.70652C25.9051 9.70652 26.6239 10.4253 26.6239 11.312C26.6239 12.1987 25.9051 12.9175 25.0184 12.9175C24.1317 12.9175 23.4129 12.1987 23.4129 11.312C23.4129 10.4253 24.1317 9.70652 25.0184 9.70652ZM22.0369 17.2202C22.0369 20.5542 19.3342 23.2569 16.0002 23.2569C12.6662 23.2569 9.96352 20.5542 9.96352 17.2202C9.96352 13.8863 12.6662 11.1836 16.0002 11.1836C19.3342 11.1836 22.0369 13.8863 22.0369 17.2202ZM16.0002 20.6395C17.8886 20.6395 19.4195 19.1086 19.4195 17.2202C19.4195 15.3318 17.8886 13.801 16.0002 13.801C14.1118 13.801 12.5809 15.3318 12.5809 17.2202C12.5809 19.1086 14.1118 20.6395 16.0002 20.6395Z"/>
</svg>
