<svg   viewBox="0 0 32 32"  fill="currentColor" xmlns="http://www.w3.org/2000/svg">
<path d="M16 28.1934C15.2103 28.1934 14.4358 28.1357 13.6818 28.0249C12.6912 27.8793 11.7357 27.642 10.8271 27.3232C10.8271 27.3232 7.48438 28.8818 5.21953 29.9404C4.59204 30.2337 3.91325 29.645 4.11373 28.982L5.58939 24.1019C3.35794 21.9147 2 19.0205 2 15.8467C2 9.0278 8.26801 3.5 16 3.5C23.732 3.5 30 9.0278 30 15.8467C30 22.6656 23.732 28.1934 16 28.1934ZM22.0998 17.6466C23.0939 17.6466 23.8998 16.8407 23.8998 15.8466C23.8998 14.8525 23.0939 14.0466 22.0998 14.0466C21.1057 14.0466 20.2998 14.8525 20.2998 15.8466C20.2998 16.8407 21.1057 17.6466 22.0998 17.6466ZM17.8002 15.8466C17.8002 14.8525 16.9943 14.0466 16.0002 14.0466C15.0061 14.0466 14.2002 14.8525 14.2002 15.8466C14.2002 16.8407 15.0061 17.6466 16.0002 17.6466C16.9943 17.6466 17.8002 16.8407 17.8002 15.8466ZM9.89961 17.6466C10.8937 17.6466 11.6996 16.8407 11.6996 15.8466C11.6996 14.8525 10.8937 14.0466 9.89961 14.0466C8.9055 14.0466 8.09961 14.8525 8.09961 15.8466C8.09961 16.8407 8.9055 17.6466 9.89961 17.6466Z"  />
</svg>
