<svg   viewBox="0 0 32 32"  fill="currentColor" xmlns="http://www.w3.org/2000/svg">
<path d="M30 16C30 23.732 23.732 30 16 30C8.26801 30 2 23.732 2 16C2 8.26801 8.26801 2 16 2C23.732 2 30 8.26801 30 16ZM10.4493 11.6512C10.2931 11.8074 10.2931 12.0607 10.4493 12.2169L14.2325 16.0001L10.4494 19.7831C10.2932 19.9393 10.2932 20.1926 10.4494 20.3488L11.6515 21.5509C11.8077 21.7071 12.061 21.7071 12.2172 21.5509L16.0002 17.7678L19.7832 21.5507C19.9394 21.7069 20.1926 21.7069 20.3488 21.5507L21.5509 20.3487C21.7071 20.1924 21.7071 19.9392 21.5509 19.783L17.768 16.0001L21.551 12.2171C21.7072 12.0609 21.7072 11.8076 21.551 11.6514L20.3489 10.4493C20.1927 10.2931 19.9394 10.2931 19.7832 10.4493L16.0002 14.2323L12.2171 10.4492C12.0609 10.2929 11.8076 10.2929 11.6514 10.4492L10.4493 11.6512Z"  />
</svg>
