<svg   viewBox="0 0 32 32"  fill="currentColor" xmlns="http://www.w3.org/2000/svg">
<path d="M19.9825 15.2862C23.1772 15.2862 25.7671 12.6963 25.7671 9.50149C25.7671 6.30669 23.1772 3.7168 19.9825 3.7168C16.7877 3.7168 14.1978 6.30669 14.1978 9.50149C14.1978 12.6963 16.7877 15.2862 19.9825 15.2862ZM8.24882 15.2862C10.6694 15.2862 12.6317 13.3239 12.6317 10.9034C12.6317 8.48278 10.6694 6.52051 8.24882 6.52051C5.82824 6.52051 3.86597 8.48278 3.86597 10.9034C3.86597 13.3239 5.82824 15.2862 8.24882 15.2862ZM7.36122 27.2318C7.36122 27.2648 7.36172 27.2977 7.36273 27.3305H2.5C1.94771 27.3305 1.5 26.8827 1.5 26.3305V21.445C1.5 20.854 1.82708 20.3116 2.34975 20.0357C4.59158 18.8524 7.00847 18.1404 9.461 17.8994C9.24743 18.0157 9.0353 18.1358 8.82472 18.2597C7.91796 18.7931 7.36122 19.7666 7.36122 20.8186V27.2318ZM9.46484 21.2308C9.46484 20.6683 9.76253 20.1478 10.2474 19.8626C16.2561 16.3278 23.7088 16.3278 29.7176 19.8626C30.2024 20.1478 30.5001 20.6683 30.5001 21.2308V27.2828C30.5001 27.8351 30.0524 28.2828 29.5001 28.2828H10.4648C9.91256 28.2828 9.46484 27.8351 9.46484 27.2828V21.2308Z"  />
</svg>
