<svg   viewBox="0 0 32 32"  fill="currentColor" xmlns="http://www.w3.org/2000/svg">
<path d="M30 16C30 23.732 23.732 30 16 30C8.26801 30 2 23.732 2 16C2 8.26801 8.26801 2 16 2C23.732 2 30 8.26801 30 16ZM17.9628 21.7318C17.9628 20.7376 17.1569 19.9318 16.1628 19.9318C15.1687 19.9318 14.3628 20.7376 14.3628 21.7318C14.3628 22.7259 15.1687 23.5318 16.1628 23.5318C17.1569 23.5318 17.9628 22.7259 17.9628 21.7318ZM14.2886 12.2854C14.4684 11.5064 15.1664 10.9257 16 10.9257C16.9701 10.9257 17.7565 11.712 17.7565 12.6821C17.7565 13.2424 17.4955 13.741 17.0835 14.0647C16.6458 14.4086 16.0836 14.8664 15.6324 15.421C15.1759 15.9823 14.75 16.7435 14.75 17.6885V18.0317C14.75 18.2527 14.9291 18.4318 15.15 18.4318H16.85C17.0709 18.4318 17.25 18.2527 17.25 18.0317V17.6885C17.25 17.529 17.3177 17.311 17.5718 16.9985C17.8314 16.6794 18.1971 16.3691 18.6279 16.0306C19.6173 15.2534 20.2565 14.0421 20.2565 12.6821C20.2565 10.3313 18.3508 8.42566 16 8.42566C13.784 8.42566 11.9635 10.1191 11.7621 12.2825C11.7416 12.5024 11.9227 12.6821 12.1436 12.6821H13.8436C14.0645 12.6821 14.2389 12.5006 14.2886 12.2854Z"  />
</svg>
