<svg xmlns="http://www.w3.org/2000/svg" viewBox="0 0 32 32" fill="currentColor">
  <path d="M4.92342 16L10.1664 9L27.4999 9V23L10.1664 23L4.92342 16ZM9.41582 6.5C9.10084 6.5 8.80426 6.64841 8.61544 6.90051L2.24893 15.4005C1.98278 15.7559 1.98278 16.2441 2.24893 16.5995L8.61544 25.0995C8.80427 25.3516 9.10084 25.5 9.41582 25.5L28.9999 25.5C29.5522 25.5 29.9999 25.0523 29.9999 24.5V7.5C29.9999 6.94772 29.5522 6.5 28.9999 6.5H9.41582ZM14.7119 20.4899C14.8681 20.6461 15.1214 20.6461 15.2776 20.4899L17.9999 17.7676L20.7225 20.4902C20.8787 20.6464 21.132 20.6464 21.2882 20.4902L22.4903 19.2881C22.6465 19.1319 22.6465 18.8786 22.4903 18.7224L19.7676 15.9998L22.4901 13.2774C22.6463 13.1212 22.6463 12.8679 22.4901 12.7117L21.288 11.5096C21.1318 11.3534 20.8785 11.3534 20.7223 11.5096L17.9999 14.232L15.2778 11.51C15.1216 11.3537 14.8683 11.3537 14.7121 11.51L13.51 12.712C13.3538 12.8682 13.3538 13.1215 13.51 13.2777L16.2321 15.9998L13.5098 18.7221C13.3536 18.8783 13.3536 19.1316 13.5098 19.2878L14.7119 20.4899Z" />
</svg>
