<svg xmlns="http://www.w3.org/2000/svg" viewBox="0 0 32 32" fill="currentColor">
  <path d="M20 5.7499C20 5.97082 19.8209 6.1499 19.6 6.1499H12.4C12.1791 6.1499 12 5.97082 12 5.7499V4.0499C12 3.82899 12.1791 3.6499 12.4 3.6499H19.6C19.8209 3.6499 20 3.82899 20 4.0499V5.7499ZM6.75 10.25H4.4C4.17909 10.25 4 10.0709 4 9.85V8.15C4 7.92909 4.17909 7.75 4.4 7.75H27.6C27.8209 7.75 28 7.92909 28 8.15V9.85C28 10.0709 27.8209 10.25 27.6 10.25H25.25V27.3062C25.25 27.8584 24.8023 28.3062 24.25 28.3062H7.75C7.19772 28.3062 6.75 27.8584 6.75 27.3062V10.25ZM9.25 10.25V25.8062H22.75V10.25H9.25ZM14.35 14.2002C14.5709 14.2002 14.75 14.3793 14.75 14.6002V21.8002C14.75 22.0211 14.5709 22.2002 14.35 22.2002H12.65C12.4291 22.2002 12.25 22.0211 12.25 21.8002V14.6002C12.25 14.3793 12.4291 14.2002 12.65 14.2002H14.35ZM19.35 22.2002C19.5709 22.2002 19.75 22.0211 19.75 21.8002V14.6002C19.75 14.3793 19.5709 14.2002 19.35 14.2002H17.65C17.4291 14.2002 17.25 14.3793 17.25 14.6002V21.8002C17.25 22.0211 17.4291 22.2002 17.65 22.2002H19.35Z" />
</svg>
