<svg xmlns="http://www.w3.org/2000/svg" viewBox="0 0 32 32" fill="currentColor">
  <path d="M5.78543 21.1343L6.10044 18.1712L16.0313 9.22943L18.696 12.189L8.7652 21.1307L5.78543 21.1343ZM20.5539 10.5162L17.8892 7.5566L19.8799 5.76417L22.5446 8.72369L20.5539 10.5162ZM3.1229 22.5306C3.06004 23.1218 3.5239 23.637 4.11849 23.6363L9.34296 23.6301C9.58967 23.6298 9.82756 23.5383 10.0109 23.3732L25.3322 9.57785C25.7426 9.2083 25.7757 8.57601 25.4062 8.16558L20.734 2.97663C20.3645 2.5662 19.7322 2.53307 19.3218 2.90262L4.00048 16.698C3.81714 16.863 3.7013 17.0901 3.67522 17.3354L3.1229 22.5306ZM28.5 26.4C28.5 26.179 28.3209 26 28.1 26H3.9C3.67909 26 3.5 26.179 3.5 26.4V28.1C3.5 28.3209 3.67909 28.5 3.9 28.5H28.1C28.3209 28.5 28.5 28.3209 28.5 28.1V26.4Z" />
</svg>
