<svg xmlns="http://www.w3.org/2000/svg" viewBox="0 0 32 32" fill="currentColor">
  <path d="M8.72705 12.0225C12.6037 7.68067 19.3962 7.68066 23.2728 12.0225L26.8242 16L23.2728 19.9775C19.3962 24.3193 12.6037 24.3193 8.72705 19.9775L5.17569 16L8.72705 12.0225ZM25.1377 10.3574C20.2671 4.90234 11.7328 4.90235 6.8622 10.3574L2.41886 15.334C2.08011 15.7134 2.08011 16.2866 2.41886 16.666L6.86221 21.6425C11.7328 27.0976 20.2671 27.0976 25.1377 21.6425L29.581 16.666C29.9198 16.2866 29.9198 15.7134 29.581 15.334L25.1377 10.3574ZM13.75 16C13.75 14.7574 14.7573 13.75 16 13.75C17.2426 13.75 18.25 14.7574 18.25 16C18.25 17.2426 17.2426 18.25 16 18.25C14.7573 18.25 13.75 17.2426 13.75 16ZM16 11.25C13.3766 11.25 11.25 13.3766 11.25 16C11.25 18.6234 13.3766 20.75 16 20.75C18.6233 20.75 20.75 18.6234 20.75 16C20.75 13.3766 18.6233 11.25 16 11.25Z" />
</svg>
