<svg xmlns="http://www.w3.org/2000/svg" viewBox="0 0 32 32" fill="currentColor">
  <path d="M3.75 4.84998C3.75 4.29769 4.19771 3.84998 4.75 3.84998H27.25C27.8023 3.84998 28.25 4.29769 28.25 4.84998V10.4871C28.25 10.8562 28.0467 11.1953 27.7211 11.3692L20.75 15.0923V28.1C20.75 28.3209 20.5709 28.5 20.35 28.5H18.65C18.4291 28.5 18.25 28.3209 18.25 28.1V13.5933L25.75 9.58771V6.34998H6.25V9.58771L13.75 13.5933V24.7908C13.75 25.0117 13.5709 25.1908 13.35 25.1908H11.65C11.4291 25.1908 11.25 25.0117 11.25 24.7908V15.0923L4.2789 11.3692C3.95332 11.1953 3.75 10.8562 3.75 10.4871V4.84998Z" />
</svg>
