<svg xmlns="http://www.w3.org/2000/svg" viewBox="0 0 32 32" fill="currentColor">
  <path d="M3.4 7.8C3.17909 7.8 3 7.62091 3 7.4V5.4C3 5.17909 3.17909 5 3.4 5H28.6C28.8209 5 29 5.17909 29 5.4V7.4C29 7.62091 28.8209 7.8 28.6 7.8H3.4ZM3.4 27C3.17909 27 3 26.8209 3 26.6V24.6C3 24.379 3.17909 24.2 3.4 24.2H28.6C28.8209 24.2 29 24.379 29 24.6V26.6C29 26.8209 28.8209 27 28.6 27H3.4ZM3 17C3 17.2209 3.17909 17.4 3.4 17.4H28.6C28.8209 17.4 29 17.2209 29 17V15C29 14.7791 28.8209 14.6 28.6 14.6H3.4C3.17909 14.6 3 14.7791 3 15V17Z" />
</svg>
