<svg xmlns="http://www.w3.org/2000/svg" viewBox="0 0 32 32" fill="currentColor">
  <path d="M6.25 6.25H11.1C11.3209 6.25 11.5 6.07091 11.5 5.85V4.15C11.5 3.92909 11.3209 3.75 11.1 3.75H4.75C4.19772 3.75 3.75 4.19772 3.75 4.75V11.1C3.75 11.3209 3.92909 11.5 4.15 11.5H5.85C6.07091 11.5 6.25 11.3209 6.25 11.1V6.25ZM25.75 6.25H20.9C20.6791 6.25 20.5 6.07091 20.5 5.85V4.15C20.5 3.92909 20.6791 3.75 20.9 3.75H27.25C27.8023 3.75 28.25 4.19772 28.25 4.75V11.1C28.25 11.3209 28.0709 11.5 27.85 11.5H26.15C25.9291 11.5 25.75 11.3209 25.75 11.1V6.25ZM20.5 26.15C20.5 25.9291 20.6791 25.75 20.9 25.75H25.75V20.9C25.75 20.6791 25.9291 20.5 26.15 20.5H27.85C28.0709 20.5 28.25 20.6791 28.25 20.9V27.25C28.25 27.8023 27.8023 28.25 27.25 28.25H20.9C20.6791 28.25 20.5 28.0709 20.5 27.85V26.15ZM6.25 25.75H11.1C11.3209 25.75 11.5 25.9291 11.5 26.15V27.85C11.5 28.0709 11.3209 28.25 11.1 28.25H4.75C4.19772 28.25 3.75 27.8023 3.75 27.25V20.9C3.75 20.6791 3.92909 20.5 4.15 20.5H5.85C6.07091 20.5 6.25 20.6791 6.25 20.9V25.75ZM3.73486 16.85C3.73486 17.0709 3.91395 17.25 4.13486 17.25H27.8651C28.0861 17.25 28.2651 17.0709 28.2651 16.85V15.15C28.2651 14.9291 28.0861 14.75 27.8651 14.75H4.13486C3.91395 14.75 3.73486 14.9291 3.73486 15.15V16.85Z" />
</svg>
