<svg xmlns="http://www.w3.org/2000/svg" viewBox="0 0 32 32" fill="currentColor">
  <path d="M28.0577 10.5616C28.4483 10.1711 28.4483 9.53791 28.0577 9.14739L24.0979 5.18759C23.9417 5.03138 23.6885 5.03138 23.5322 5.18759L22.3302 6.38967C22.174 6.54588 22.174 6.79915 22.3302 6.95536L24.0414 8.66664L19.5401 8.47759C12.7634 8.19299 6.543 12.1602 3.92977 18.3889C3.84431 18.5926 3.94616 18.8253 4.15191 18.9057L5.73521 19.5247C5.94096 19.6051 6.17255 19.503 6.25893 19.2996C8.4826 14.0653 13.7254 10.7356 19.4352 10.9754L23.9189 11.1637L22.3295 12.7531C22.1733 12.9093 22.1733 13.1626 22.3295 13.3188L23.5316 14.5209C23.6878 14.6771 23.941 14.6771 24.0973 14.5209L28.0577 10.5616ZM28.3499 27.35C28.3499 27.9023 27.9022 28.35 27.3499 28.35H4.6499C4.09762 28.35 3.6499 27.9023 3.6499 27.35V22.5C3.6499 22.2791 3.82899 22.1 4.0499 22.1H5.7499C5.97082 22.1 6.1499 22.2791 6.1499 22.5V25.85H25.8499V22.5C25.8499 22.2791 26.029 22.1 26.2499 22.1H27.9499C28.1708 22.1 28.3499 22.2791 28.3499 22.5V27.35Z" />
</svg>
