<svg xmlns="http://www.w3.org/2000/svg" viewBox="0 0 32 32" fill="currentColor">
  <path d="M3.50456 8.68245C3.22456 8.40245 3.14532 7.99772 3.26683 7.64712C3.31477 7.50852 3.39408 7.37837 3.50475 7.2677L7.46436 3.30844C7.62057 3.15223 7.87384 3.15223 8.03005 3.30844L9.23213 4.51052C9.38834 4.66673 9.38834 4.92 9.23213 5.07621L7.58329 6.72505H21.1563C25.1604 6.72505 28.4063 9.97098 28.4063 13.975V15.575C28.4063 15.796 28.2272 15.975 28.0063 15.975H26.3063C26.0854 15.975 25.9063 15.796 25.9063 15.575V13.975C25.9063 11.3517 23.7796 9.22505 21.1563 9.22505H7.58342L9.23232 10.8739C9.38853 11.0302 9.38853 11.2834 9.23232 11.4396L8.03023 12.6417C7.87403 12.7979 7.62076 12.7979 7.46455 12.6417L3.50456 8.68245ZM24.536 19.3582L28.4956 23.3175C28.6062 23.4282 28.6855 23.5583 28.7335 23.6969C28.855 24.0475 28.7758 24.4523 28.4958 24.7323L24.5358 28.6915C24.3796 28.8477 24.1263 28.8477 23.9701 28.6915L22.768 27.4894C22.6118 27.3332 22.6118 27.08 22.768 26.9237L24.4169 25.2749H10.844C6.83997 25.2749 3.59403 22.0289 3.59403 18.0249V16.4249C3.59403 16.2039 3.77312 16.0249 3.99403 16.0249H5.69403C5.91495 16.0249 6.09403 16.2039 6.09403 16.4249V18.0249C6.09403 20.6482 8.22068 22.7749 10.844 22.7749H24.417L22.7682 21.126C22.612 20.9698 22.612 20.7165 22.7682 20.5603L23.9703 19.3582C24.1265 19.202 24.3797 19.202 24.536 19.3582Z" />
</svg>
