<svg xmlns="http://www.w3.org/2000/svg" viewBox="0 0 32 32" fill="currentColor">
  <path d="M15.2931 4.21037C15.5484 3.95508 15.9074 3.86668 16.2345 3.94516C16.408 3.98666 16.5726 4.07512 16.7081 4.21056L22.7884 10.2915C22.9446 10.4477 22.9446 10.701 22.7884 10.8572L21.5863 12.0593C21.4301 12.2155 21.1769 12.2155 21.0206 12.0593L17.25 8.28861L17.25 23.197C17.25 23.4179 17.0709 23.597 16.85 23.597H15.15C14.9291 23.597 14.75 23.4179 14.75 23.197L14.75 8.28997L10.9805 12.0594C10.8243 12.2157 10.571 12.2157 10.4148 12.0594L9.21275 10.8574C9.05654 10.7012 9.05654 10.4479 9.21275 10.2917L15.2931 4.21037ZM4.6499 28.3501C4.09762 28.3501 3.6499 27.9024 3.6499 27.3501V22.5001C3.6499 22.2792 3.82899 22.1001 4.0499 22.1001H5.7499C5.97082 22.1001 6.1499 22.2792 6.1499 22.5001V25.8501H25.8499V22.5001C25.8499 22.2792 26.029 22.1001 26.2499 22.1001H27.9499C28.1708 22.1001 28.3499 22.2792 28.3499 22.5001V27.3501C28.3499 27.9024 27.9022 28.3501 27.3499 28.3501H4.6499Z" />
</svg>
