<svg  viewBox="0 0 32 32" fill="currentColor" xmlns="http://www.w3.org/2000/svg">
<path d="M9.87277 15.0513L4.75 20.4264V7.75H27.25V25.25H25.2759L12.9499 14.8818C12.0404 14.1168 10.6927 14.191 9.87277 15.0513ZM4.5 5.25C3.25736 5.25 2.25 6.25736 2.25 7.5V25.5C2.25 26.7426 3.25736 27.75 4.5 27.75H27.5C28.7426 27.75 29.75 26.7426 29.75 25.5V7.5C29.75 6.25736 28.7426 5.25 27.5 5.25H4.5ZM21.6421 9.75C19.6472 9.75 18.03 11.3671 18.03 13.362C18.03 15.3569 19.6472 16.974 21.6421 16.974C23.6369 16.974 25.2541 15.3569 25.2541 13.362C25.2541 11.3671 23.6369 9.75 21.6421 9.75ZM20.53 13.362C20.53 12.7478 21.0279 12.25 21.6421 12.25C22.2563 12.25 22.7541 12.7478 22.7541 13.362C22.7541 13.9762 22.2563 14.474 21.6421 14.474C21.0279 14.474 20.53 13.9762 20.53 13.362Z" />
</svg>
