<svg   viewBox="0 0 32 32"  fill="currentColor" xmlns="http://www.w3.org/2000/svg">
<path d="M30 16C30 23.732 23.732 30 16 30C8.26801 30 2 23.732 2 16C2 8.26801 8.26801 2 16 2C23.732 2 30 8.26801 30 16ZM16.85 18C17.0709 18 17.25 17.8209 17.25 17.6V9.4C17.25 9.17909 17.0709 9 16.85 9H15.15C14.9291 9 14.75 9.17909 14.75 9.4V17.6C14.75 17.8209 14.9291 18 15.15 18H16.85ZM16 23C16.9941 23 17.8 22.1941 17.8 21.2C17.8 20.2059 16.9941 19.4 16 19.4C15.0058 19.4 14.2 20.2059 14.2 21.2C14.2 22.1941 15.0058 23 16 23Z"  />
</svg>
