<svg   viewBox="0 0 32 32"  fill="currentColor" xmlns="http://www.w3.org/2000/svg">
<path d="M16 30C23.732 30 30 23.732 30 16C30 8.26801 23.732 2 16 2C8.26801 2 2 8.26801 2 16C2 23.732 8.26801 30 16 30ZM22.0998 17.8C21.1057 17.8 20.2998 16.9941 20.2998 16C20.2998 15.0058 21.1057 14.2 22.0998 14.2C23.0939 14.2 23.8998 15.0058 23.8998 16C23.8998 16.9941 23.0939 17.8 22.0998 17.8ZM17.8002 16C17.8002 16.9941 16.9943 17.8 16.0002 17.8C15.0061 17.8 14.2002 16.9941 14.2002 16C14.2002 15.0058 15.0061 14.2 16.0002 14.2C16.9943 14.2 17.8002 15.0058 17.8002 16ZM9.89961 17.8C8.9055 17.8 8.09961 16.9941 8.09961 16C8.09961 15.0058 8.9055 14.2 9.89961 14.2C10.8937 14.2 11.6996 15.0058 11.6996 16C11.6996 16.9941 10.8937 17.8 9.89961 17.8Z"  />
</svg>
