<svg   viewBox="0 0 32 32"  fill="currentColor" xmlns="http://www.w3.org/2000/svg">
<path d="M14.2862 3.96924C15.0634 2.67692 16.9368 2.67692 17.714 3.96924L30.4153 25.0886C31.217 26.4216 30.2569 28.1194 28.7014 28.1194H3.29875C1.74324 28.1194 0.783146 26.4216 1.58483 25.0886L14.2862 3.96924ZM16.8498 20.2699C17.0707 20.2699 17.2498 20.0908 17.2498 19.8699V11.6699C17.2498 11.449 17.0707 11.2699 16.8498 11.2699H15.1498C14.9288 11.2699 14.7498 11.449 14.7498 11.6699V19.8699C14.7498 20.0908 14.9288 20.2699 15.1498 20.2699H16.8498ZM16 25.2699C16.9941 25.2699 17.8 24.464 17.8 23.4699C17.8 22.4758 16.9941 21.6699 16 21.6699C15.0058 21.6699 14.2 22.4758 14.2 23.4699C14.2 24.464 15.0058 25.2699 16 25.2699Z"  />
</svg>
