<svg xmlns="http://www.w3.org/2000/svg" viewBox="0 0 32 32" fill="currentColor">
  <path d="M4.75 7.75V19.9755L9.4428 15.0516C10.2627 14.1913 11.6104 14.117 12.5199 14.882L24.8457 25.25H27.25V7.75H4.75ZM4.75 25.25H20.962L11.0904 16.9465L4.75 23.5991V25.25ZM2.25 7.5C2.25 6.25736 3.25736 5.25 4.5 5.25H27.5C28.7426 5.25 29.75 6.25736 29.75 7.5V25.5C29.75 26.7426 28.7426 27.75 27.5 27.75H4.5C3.25736 27.75 2.25 26.7426 2.25 25.5V7.5ZM21.6421 9.75C19.6472 9.75 18.03 11.3671 18.03 13.362C18.03 15.3569 19.6472 16.974 21.6421 16.974C23.6369 16.974 25.2541 15.3569 25.2541 13.362C25.2541 11.3671 23.6369 9.75 21.6421 9.75ZM20.53 13.362C20.53 12.7478 21.0279 12.25 21.6421 12.25C22.2563 12.25 22.7541 12.7478 22.7541 13.362C22.7541 13.9762 22.2563 14.474 21.6421 14.474C21.0279 14.474 20.53 13.9762 20.53 13.362Z" />
</svg>
