<svg xmlns="http://www.w3.org/2000/svg" viewBox="0 0 32 32" fill="currentColor">
  <path d="M19.8784 13C18.0835 13 16.6284 11.5449 16.6284 9.75C16.6284 7.95507 18.0835 6.5 19.8784 6.5C21.6733 6.5 23.1284 7.95507 23.1284 9.75C23.1284 11.5449 21.6733 13 19.8784 13ZM19.8784 15.5C23.0541 15.5 25.6284 12.9256 25.6284 9.75C25.6284 6.57436 23.0541 4 19.8784 4C16.7028 4 14.1284 6.57436 14.1284 9.75C14.1284 12.9256 16.7028 15.5 19.8784 15.5ZM9.80688 11.4209C9.80688 10.5925 9.13531 9.9209 8.30688 9.9209C7.47846 9.9209 6.80688 10.5925 6.80688 11.4209C6.80688 12.2493 7.47846 12.9209 8.30688 12.9209C9.13531 12.9209 9.80688 12.2493 9.80688 11.4209ZM12.3069 11.4209C12.3069 13.63 10.516 15.4209 8.30688 15.4209C6.09775 15.4209 4.30688 13.63 4.30688 11.4209C4.30688 9.21176 6.09775 7.4209 8.30688 7.4209C10.516 7.4209 12.3069 9.21176 12.3069 11.4209ZM3.37158 24.4999H7.31567V26.9999H1.87158C1.3193 26.9999 0.871582 26.5522 0.871582 25.9999V21.2695C0.871582 20.5587 1.25676 19.9037 1.87795 19.5582C3.60583 18.5972 5.43768 17.9034 7.31567 17.4768V20.0498C5.9598 20.4032 4.63553 20.917 3.37158 21.5913V24.4999ZM11.6284 25.5H28.1284V22.5758C22.9833 19.7853 16.7735 19.7853 11.6284 22.5758V25.5ZM9.12842 22.2148C9.12842 21.5367 9.49238 20.9108 10.0817 20.5754C16.1555 17.1187 23.6014 17.1187 29.6751 20.5754C30.2645 20.9108 30.6284 21.5367 30.6284 22.2148V27C30.6284 27.5522 30.1807 28 29.6284 28H10.1284C9.57613 28 9.12842 27.5522 9.12842 27V22.2148Z" />
</svg>
