<svg xmlns="http://www.w3.org/2000/svg" viewBox="0 0 32 32" fill="currentColor">
  <path d="M20.4949 2.04319C21.5613 1.10756 23.2331 1.86476 23.2331 3.2834L23.2337 16.6413L20.7336 14.5497L20.7332 5.15998L15.2551 9.96646L13.3147 8.34311L20.4949 2.04319ZM20.7339 23.1008L23.234 25.1924L23.2341 28.7169C23.2342 30.1358 21.5619 30.893 20.4956 29.9569L12.1637 22.6425H7.01587C5.77323 22.6425 4.76587 21.6351 4.76587 20.3925V11.6038C4.76587 11.0599 4.95882 10.5611 5.28001 10.1721L7.29009 11.8538H7.26587V20.1425H13.1053L20.7341 26.8396L20.7339 23.1008ZM30.1688 25.089C30.3382 25.2308 30.3607 25.4831 30.2189 25.6525L29.1281 26.9564C28.9863 27.1258 28.7341 27.1483 28.5646 27.0065L5.26994 7.51825C5.1005 7.3765 5.07806 7.12423 5.21981 6.95479L6.31063 5.65091C6.45238 5.48147 6.70465 5.45903 6.87409 5.60078L30.1688 25.089Z" />
</svg>
