<svg xmlns="http://www.w3.org/2000/svg" viewBox="0 0 32 32" fill="currentColor">
  <path d="M20.9623 6.2257L20.8427 7.80735C20.8115 8.21907 20.5937 8.5939 20.2514 8.82478L12.818 13.8384C12.4285 14.1011 11.9403 14.1373 11.5258 13.9578C10.567 13.5427 9.78131 13.4152 9.14523 13.5036C8.87595 13.5411 8.61115 13.6201 8.35065 13.7543L12.0517 16.8598C12.5496 17.2776 12.6791 17.9911 12.3597 18.5573L9.48446 23.6541L13.9917 19.9306C14.4937 19.5159 15.2203 19.5186 15.7192 19.9373L19.4436 23.0624C19.5217 22.8021 19.5477 22.5492 19.5369 22.2972C19.5097 21.6661 19.2443 20.9021 18.6584 19.9227C18.4368 19.5524 18.4009 19.0883 18.5838 18.6785L22.238 10.4937C22.4152 10.0969 22.7725 9.80959 23.1981 9.72184L24.748 9.40231L20.9623 6.2257ZM18.6384 3.80228C18.7213 2.70587 20.01 2.16315 20.8523 2.86992L28.1753 9.01465C29.0399 9.7401 28.6855 11.1431 27.5802 11.371L24.2804 12.0513L21.1036 19.167C21.6289 20.1461 21.99 21.1533 22.0346 22.1898C22.0894 23.4636 21.661 24.6403 20.7669 25.7246C20.3148 26.2727 19.4904 26.3652 18.9284 25.8936L14.8457 22.4678L6.29565 29.5313C5.14162 30.4846 3.52456 29.131 4.26002 27.8272L9.71294 18.1609L5.65138 14.7528C5.09118 14.2828 5.03549 13.455 5.49879 12.9127C6.4156 11.8395 7.53195 11.2039 8.80097 11.0275C9.83694 10.8834 10.8908 11.0567 11.9223 11.427L18.3918 7.06354L18.6384 3.80228Z" />
</svg>
