<svg xmlns="http://www.w3.org/2000/svg" viewBox="0 0 32 32" fill="currentColor">
  <path d="M7.25005 8.23232V5.25H24.7501V8.23236C23.3554 9.42047 21.7264 10.3287 19.9459 10.8755C19.2231 9.42841 17.7277 8.43457 16.0001 8.43457C14.2725 8.43457 12.7771 9.42841 12.0543 10.8755C10.2737 10.3287 8.64469 9.42043 7.25005 8.23232ZM4.75005 9.28843L4.72949 9.3092C4.73634 9.31598 4.74319 9.32275 4.75005 9.32952V27C4.75005 28.2426 5.75741 29.25 7.00005 29.25H25.0001C26.2427 29.25 27.2501 28.2426 27.2501 27V9.32957C27.2569 9.32278 27.2638 9.31599 27.2707 9.3092L27.2501 9.28838V5C27.2501 3.75736 26.2427 2.75 25.0001 2.75H7.00005C5.75741 2.75 4.75005 3.75736 4.75005 5V9.28843ZM24.7501 11.3505V26.75H7.25005V11.3505C8.58404 12.2256 10.0541 12.9071 11.6217 13.3547C11.8754 15.5478 13.7389 17.2504 16.0001 17.2504C18.2613 17.2504 20.1248 15.5478 20.3785 13.3546C21.9461 12.9071 23.4161 12.2256 24.7501 11.3505ZM16.0001 10.9346C17.0538 10.9346 17.908 11.7888 17.908 12.8425C17.908 13.8962 17.0538 14.7504 16.0001 14.7504C14.9464 14.7504 14.0922 13.8962 14.0922 12.8425C14.0922 11.7888 14.9464 10.9346 16.0001 10.9346Z" />
</svg>
