<svg xmlns="http://www.w3.org/2000/svg" viewBox="0 0 32 32" fill="currentColor">
  <path d="M16 27.5C22.3513 27.5 27.5 22.3513 27.5 16C27.5 9.64872 22.3513 4.5 16 4.5C9.64872 4.5 4.5 9.64872 4.5 16C4.5 22.3513 9.64872 27.5 16 27.5ZM16 30C8.26801 30 2 23.732 2 16C2 8.26801 8.26801 2 16 2C23.732 2 30 8.26801 30 16C30 23.732 23.732 30 16 30ZM9.47592 18.6833C8.87806 18.0444 9.33108 17 10.2061 17H22.3824C22.6033 17 22.7824 17.1791 22.7824 17.4V19.1C22.7824 19.3209 22.6033 19.5 22.3824 19.5H13.6641L14.7906 20.7038C14.9416 20.8651 14.9332 21.1183 14.7719 21.2692L13.5306 22.4308C13.3693 22.5817 13.1162 22.5733 12.9652 22.412L9.47592 18.6833ZM21.7939 15C22.6689 15 23.1219 13.9556 22.5241 13.3167L19.0348 9.58798C18.8838 9.42667 18.6307 9.41827 18.4694 9.56922L17.2281 10.7308C17.0668 10.8817 17.0584 11.1349 17.2094 11.2962L18.3359 12.5H9.61758C9.39667 12.5 9.21758 12.6791 9.21758 12.9V14.6C9.21758 14.8209 9.39667 15 9.61758 15H21.7939Z" />
</svg>
