<svg xmlns="http://www.w3.org/2000/svg" viewBox="0 0 32 32" fill="currentColor">
  <path d="M16.0786 2.22401C17.1133 1.16907 18.9065 1.90165 18.9066 3.37933L18.9074 28.6208C18.9075 30.0988 17.1138 30.8314 16.0792 29.7759L9.08631 22.6425H4.91553C3.67289 22.6425 2.66553 21.6351 2.66553 20.3925V11.6037C2.66553 10.3611 3.67289 9.35373 4.91553 9.35373H9.0856L16.0786 2.22401ZM16.4067 5.45982L10.1353 11.8537H5.16553V20.1425H10.1365L16.4074 26.5395L16.4067 5.45982ZM25.9281 8.54207C26.0925 8.39445 26.3454 8.40801 26.493 8.57236L27.061 9.20472C28.4964 10.8028 29.3346 13.3064 29.3346 16C29.3346 18.6936 28.4964 21.1972 27.061 22.7952L26.493 23.4276C26.3454 23.5919 26.0925 23.6055 25.9281 23.4579L24.6634 22.3219C24.4991 22.1742 24.4855 21.9213 24.6331 21.757L25.2011 21.1246C26.1282 20.0926 26.8346 18.2379 26.8346 16C26.8346 13.762 26.1282 11.9074 25.2011 10.8753L24.6331 10.2429C24.4855 10.0786 24.4991 9.8257 24.6634 9.67807L25.9281 8.54207ZM22.7433 10.7198C22.5956 10.5555 22.3427 10.5419 22.1784 10.6895L20.9137 11.8255C20.7493 11.9732 20.7358 12.2261 20.8834 12.3904L21.4514 13.0228C21.9529 13.5811 22.3811 14.6508 22.3811 16.0004C22.3811 17.3501 21.9529 18.4197 21.4514 18.9781L20.8834 19.6104C20.7358 19.7748 20.7493 20.0277 20.9137 20.1753L22.1784 21.3113C22.3427 21.4589 22.5956 21.4453 22.7433 21.281L23.3113 20.6486C24.3211 19.5243 24.8811 17.8057 24.8811 16.0004C24.8811 14.1951 24.3211 12.4765 23.3113 11.3522L22.7433 10.7198Z" />
</svg>
