<svg xmlns="http://www.w3.org/2000/svg" viewBox="0 0 32 32" fill="currentColor">
  <path d="M22.0341 22.1888L18.4663 19.204C18.4618 19.4559 18.5279 19.7055 18.6579 19.9227C19.2438 20.9021 19.5093 21.6661 19.5364 22.2972C19.5473 22.5492 19.5212 22.8021 19.4431 23.0624L15.7189 19.9374C15.2193 19.5181 14.4914 19.516 13.9893 19.9324L9.21023 23.8959L12.3451 18.5785C12.6802 18.0102 12.5554 17.2829 12.05 16.8587L8.3502 13.7543C8.61069 13.6201 8.8755 13.5411 9.14477 13.5036C9.78085 13.4152 10.5665 13.5427 11.5253 13.9578C11.7706 14.064 12.0417 14.0947 12.3028 14.0476L8.70896 11.041C7.47776 11.2348 6.39303 11.8654 5.49834 12.9127C5.03503 13.455 5.09072 14.2828 5.65092 14.7528L9.69692 18.1478L3.71156 28.3001C2.9432 29.6034 4.57171 30.9907 5.7363 30.0249L14.8468 22.4691L18.9279 25.8936C19.49 26.3652 20.3144 26.2727 20.7664 25.7246C21.6606 24.6403 22.0889 23.4626 22.0341 22.1888ZM23.1535 14.5745L21.1602 12.9068L22.2375 10.4937C22.4147 10.0969 22.7721 9.80959 23.1977 9.72184L24.7476 9.40231L20.9618 6.2257L20.8422 7.80735C20.8111 8.21907 20.5933 8.5939 20.2509 8.82478L18.0529 10.3073L16.0573 8.63779L18.3913 7.06354L18.6379 3.80228C18.7208 2.70587 20.0096 2.16315 20.8519 2.86992L28.1749 9.01465C29.0395 9.7401 28.6851 11.1431 27.5797 11.371L24.28 12.0513L23.1535 14.5745ZM29.0575 22.159C29.2269 22.3007 29.2493 22.553 29.1076 22.7224L28.0168 24.0263C27.875 24.1958 27.6227 24.2182 27.4533 24.0765L5.82422 5.98164C5.65478 5.83989 5.63234 5.58762 5.77409 5.41818L6.86491 4.1143C7.00666 3.94486 7.25893 3.92242 7.42837 4.06417L29.0575 22.159Z" />
</svg>
