<svg xmlns="http://www.w3.org/2000/svg" viewBox="0 0 32 32" fill="currentColor">
  <path d="M25.3793 22.6558C26.7148 20.7773 27.5 18.4803 27.5 16C27.5 9.64872 22.3513 4.5 16 4.5C9.64872 4.5 4.5 9.64872 4.5 16C4.5 18.4803 5.28523 20.7772 6.62066 22.6557C12.2543 18.7494 19.7457 18.7494 25.3793 22.6558ZM23.7026 24.5395C19.0393 21.4548 12.9606 21.4548 8.29743 24.5395C10.3362 26.3796 13.0373 27.5 16 27.5C18.9627 27.5 21.6638 26.3796 23.7026 24.5395ZM16 30C8.26801 30 2 23.732 2 16C2 8.26801 8.26801 2 16 2C23.732 2 30 8.26801 30 16C30 23.732 23.732 30 16 30ZM16.0001 15.4132C14.7856 15.4132 13.801 14.4287 13.801 13.2142C13.801 11.9997 14.7856 11.0151 16.0001 11.0151C17.2146 11.0151 18.1991 11.9997 18.1991 13.2142C18.1991 14.4287 17.2146 15.4132 16.0001 15.4132ZM16.0001 17.9132C18.5953 17.9132 20.6991 15.8094 20.6991 13.2142C20.6991 10.619 18.5953 8.51514 16.0001 8.51514C13.4049 8.51514 11.301 10.619 11.301 13.2142C11.301 15.8094 13.4049 17.9132 16.0001 17.9132Z" />
</svg>
