<svg xmlns="http://www.w3.org/2000/svg"  viewBox="0 0 32 32" fill="currentColor">
  <path d="M20.5 10C20.5 12.4853 18.4853 14.5 16 14.5C13.5147 14.5 11.5 12.4853 11.5 10C11.5 7.51472 13.5147 5.5 16 5.5C18.4853 5.5 20.5 7.51472 20.5 10ZM23 10C23 13.866 19.866 17 16 17C12.134 17 9 13.866 9 10C9 6.13401 12.134 3 16 3C19.866 3 23 6.13401 23 10ZM5.5 26.5H18.7708V29H4C3.44772 29 3 28.5523 3 28V22.1933C3 21.8224 3.20852 21.4829 3.53939 21.3152C8.30357 18.9007 13.5941 17.9547 18.7708 18.4774V20.9914C14.2823 20.4925 9.69001 21.2098 5.5 23.1433V26.5ZM24.2924 25.3454C23.6489 25.3454 23.1272 24.8238 23.1272 24.1803C23.1272 23.5368 23.6489 23.0151 24.2924 23.0151C24.9359 23.0151 25.4575 23.5368 25.4575 24.1803C25.4575 24.8238 24.9359 25.3454 24.2924 25.3454ZM27.6075 25.7454C27.832 25.2708 27.9575 24.7402 27.9575 24.1803C27.9575 22.1561 26.3166 20.5151 24.2924 20.5151C22.2681 20.5151 20.6272 22.1561 20.6272 24.1803C20.6272 26.2045 22.2681 27.8454 24.2924 27.8454C24.8523 27.8454 25.3829 27.7199 25.8575 27.4954C25.8743 27.5238 25.8949 27.5505 25.9193 27.5749L27.9452 29.6009C28.1014 29.7571 28.3547 29.7571 28.5109 29.6009L29.713 28.3988C29.8692 28.2426 29.8692 27.9893 29.713 27.8331L27.687 25.8071C27.6626 25.7827 27.6359 25.7622 27.6075 25.7454Z" />
</svg>
