<svg xmlns="http://www.w3.org/2000/svg" width="16" height="16" viewBox="0 0 16 16" fill="currentColor">
  <path d="M3.68626 13.3034C3.60816 13.3815 3.48153 13.3815 3.40342 13.3034L2.69631 12.5963C2.61821 12.5182 2.61821 12.3915 2.69631 12.3134L7.00964 8.00009L2.69627 3.68673C2.61817 3.60863 2.61817 3.48199 2.69627 3.40389L3.40338 2.69678C3.48149 2.61868 3.60812 2.61868 3.68622 2.69678L7.99959 7.01014L12.313 2.69676C12.3911 2.61866 12.5177 2.61866 12.5958 2.69676L13.3029 3.40387C13.381 3.48197 13.381 3.60861 13.3029 3.68671L8.98954 8.00009L13.3029 12.3134C13.381 12.3915 13.381 12.5182 13.3029 12.5963L12.5958 13.3034C12.5177 13.3815 12.391 13.3815 12.3129 13.3034L7.99959 8.99004L3.68626 13.3034Z" />
</svg>
