<svg width="16" height="16" viewBox="0 0 16 16" fill="currentColor" xmlns="http://www.w3.org/2000/svg">
<path fill-rule="evenodd" clip-rule="evenodd" d="M6 1.25C5.0335 1.25 4.25 2.0335 4.25 3V4.25H3C2.0335 4.25 1.25 5.0335 1.25 6V13C1.25 13.9665 2.0335 14.75 3 14.75H10C10.9665 14.75 11.75 13.9665 11.75 13V11.75H13C13.9665 11.75 14.75 10.9665 14.75 10V3C14.75 2.0335 13.9665 1.25 13 1.25H6ZM10.25 11.75H6C5.0335 11.75 4.25 10.9665 4.25 10V5.75H3C2.86193 5.75 2.75 5.86193 2.75 6V13C2.75 13.1381 2.86193 13.25 3 13.25H10C10.1381 13.25 10.25 13.1381 10.25 13V11.75ZM5.75 3C5.75 2.86193 5.86193 2.75 6 2.75H13C13.1381 2.75 13.25 2.86193 13.25 3V10C13.25 10.1381 13.1381 10.25 13 10.25H6C5.86193 10.25 5.75 10.1381 5.75 10V3Z"/>
</svg>
