<svg width="18" height="14" viewBox="0 0 18 14" fill="none" xmlns="http://www.w3.org/2000/svg">
<g id="Group 1">
<g id="Union">
<path fill-rule="evenodd" clip-rule="evenodd" d="M9.00006 3.93767C7.30869 3.93767 5.93756 5.3088 5.93756 7.00017C5.93756 8.69154 7.30869 10.0627 9.00006 10.0627C10.6914 10.0627 12.0626 8.69154 12.0626 7.00017C12.0626 5.3088 10.6914 3.93767 9.00006 3.93767ZM7.68756 7.00017C7.68756 6.2753 8.27519 5.68767 9.00006 5.68767C9.72494 5.68767 10.3126 6.2753 10.3126 7.00017C10.3126 7.72505 9.72494 8.31267 9.00006 8.31267C8.27519 8.31267 7.68756 7.72505 7.68756 7.00017Z" fill="#E0E0E0"/>
<path fill-rule="evenodd" clip-rule="evenodd" d="M14.781 3.41113C11.6996 -0.0400403 6.30036 -0.040037 3.21896 3.41113L0.720614 6.20928C0.318348 6.65982 0.318349 7.34053 0.720614 7.79107L3.21896 10.5892C6.30036 14.0404 11.6996 14.0404 14.781 10.5892L17.2793 7.79107C17.6816 7.34053 17.6816 6.65982 17.2793 6.20928L14.781 3.41113ZM4.52435 4.57666C6.90995 1.90479 11.09 1.90478 13.4756 4.57666L15.6395 7.00017L13.4756 9.42369C11.09 12.0956 6.90995 12.0956 4.52435 9.42369L2.3605 7.00017L4.52435 4.57666Z" fill="#E0E0E0"/>
</g>
</g>
</svg>
