<svg width="56" height="56" viewBox="0 0 56 56" fill="none" xmlns="http://www.w3.org/2000/svg">
<g id="Group 2579">
<path id="Rectangle 34624807" d="M4 4C4 1.79086 5.79086 0 8 0H34.3431C35.404 0 36.4214 0.421427 37.1716 1.17157L50.8284 14.8284C51.5786 15.5786 52 16.596 52 17.6569V52C52 54.2091 50.2091 56 48 56H8C5.79086 56 4 54.2091 4 52V4Z" fill="#B98EFF"/>
<g id="Group 2580">
<mask id="mask0_3721_53336" style="mask-type:alpha" maskUnits="userSpaceOnUse" x="4" y="0" width="48" height="56">
<path id="Rectangle 34624807_2" d="M4 4C4 1.79086 5.79086 0 8 0H34.3431C35.404 0 36.4214 0.421427 37.1716 1.17157L50.8284 14.8284C51.5786 15.5786 52 16.596 52 17.6569V52C52 54.2091 50.2091 56 48 56H8C5.79086 56 4 54.2091 4 52V4Z" fill="#B4D400"/>
</mask>
<g mask="url(#mask0_3721_53336)">
<path id="Rectangle 34624807_3" d="M40 16C37.7909 16 36 14.2091 36 12V0L52 16H40Z" fill="#CDAFFF"/>
</g>
</g>
<g id="Union">
<path fill-rule="evenodd" clip-rule="evenodd" d="M22 28C22 30.2091 20.2091 32 18 32C15.7909 32 14 30.2091 14 28C14 25.7909 15.7909 24 18 24C20.2091 24 22 25.7909 22 28ZM17.1161 27.4696C17.0184 27.3719 16.8601 27.3719 16.7625 27.4696L16.409 27.8231C16.3113 27.9208 16.3113 28.0791 16.409 28.1767L17.4696 29.2373C17.5672 29.335 17.7255 29.335 17.8232 29.2373L19.5909 27.4696C19.6886 27.3719 19.6886 27.2137 19.5909 27.116L19.2374 26.7625C19.1398 26.6648 18.9815 26.6648 18.8838 26.7625L17.6464 27.9999L17.1161 27.4696Z" fill="#F3ECFF"/>
<path d="M26 27C26 26.7239 26.2239 26.5 26.5 26.5H41.5C41.7761 26.5 42 26.7239 42 27V29C42 29.2761 41.7761 29.5 41.5 29.5H26.5C26.2239 29.5 26 29.2761 26 29V27Z" fill="#F3ECFF"/>
<path fill-rule="evenodd" clip-rule="evenodd" d="M22 40C22 42.2091 20.2091 44 18 44C15.7909 44 14 42.2091 14 40C14 37.7909 15.7909 36 18 36C20.2091 36 22 37.7909 22 40ZM20 40C20 41.1046 19.1046 42 18 42C16.8954 42 16 41.1046 16 40C16 38.8954 16.8954 38 18 38C19.1046 38 20 38.8954 20 40Z" fill="#F3ECFF"/>
<path d="M26.5 38.5C26.2239 38.5 26 38.7239 26 39V41C26 41.2761 26.2239 41.5 26.5 41.5H41.5C41.7761 41.5 42 41.2761 42 41V39C42 38.7239 41.7761 38.5 41.5 38.5H26.5Z" fill="#F3ECFF"/>
</g>
</g>
</svg>
