<svg width="16" height="17" viewBox="0 0 16 17" fill="none" xmlns="http://www.w3.org/2000/svg">
<g id="&#230;&#144;&#156;&#231;&#180;&#162; (3)">
<path id="&#229;&#189;&#162;&#231;&#138;&#182;" fill-rule="evenodd" clip-rule="evenodd" d="M7.62651 13.9861C10.8973 13.9861 13.5486 11.3348 13.5486 8.06401C13.5486 4.79324 10.8973 2.14192 7.62651 2.14192C4.35574 2.14192 1.70442 4.79324 1.70442 8.06401C1.70442 11.3348 4.35574 13.9861 7.62651 13.9861ZM13.1204 13.1712L15.552 15.6035C15.8567 15.9156 15.8507 16.4155 15.5387 16.7201C15.2267 17.0248 14.7267 17.0188 14.4221 16.7068L11.9277 14.21C10.6679 15.0941 9.16563 15.5673 7.62651 15.5649C3.48282 15.5649 0.125 12.2071 0.125 8.06401C0.125 3.92092 3.48342 0.5625 7.62651 0.5625C11.769 0.5625 15.1274 3.92092 15.1274 8.06401C15.1274 10.0367 14.3658 11.8316 13.1204 13.1712Z" fill="white"/>
</g>
</svg>
