<svg width="41" height="40" viewBox="0 0 41 40" fill="none" xmlns="http://www.w3.org/2000/svg">
<g id="Group 2570">
<path id="Union" d="M19.6165 5.09573C19.9356 4.77662 20.3843 4.66611 20.7932 4.76422C21.0102 4.81609 21.2159 4.92667 21.3852 5.09597L28.9856 12.6971C29.1809 12.8924 29.1809 13.209 28.9856 13.4042L27.483 14.9068C27.2878 15.1021 26.9712 15.1021 26.7759 14.9068L22.0626 10.1935L22.0626 28.829C22.0626 29.1051 21.8388 29.329 21.5626 29.329H19.4376C19.1615 29.329 18.9376 29.1051 18.9376 28.829L18.9376 10.1952L14.2258 14.9071C14.0305 15.1023 13.7139 15.1023 13.5187 14.9071L12.0161 13.4045C11.8208 13.2092 11.8208 12.8926 12.0161 12.6974L19.6165 5.09573ZM6.3125 35.2704C5.62214 35.2704 5.0625 34.7108 5.0625 34.0204V27.9579C5.0625 27.6818 5.28636 27.4579 5.5625 27.4579H7.6875C7.96364 27.4579 8.1875 27.6818 8.1875 27.9579V32.1454H32.8125V27.9579C32.8125 27.6818 33.0364 27.4579 33.3125 27.4579H35.4375C35.7136 27.4579 35.9375 27.6818 35.9375 27.9579V34.0204C35.9375 34.7108 35.3779 35.2704 34.6875 35.2704H6.3125Z" fill="#127FFF"/>
</g>
</svg>
