<svg xmlns="http://www.w3.org/2000/svg" viewBox="0 0 16 16" fill="currentColor">
  <path d="M5.9375 2.7375C5.9375 2.84796 6.02704 2.9375 6.1375 2.9375H12.8125V11.6125C12.8125 11.723 12.902 11.8125 13.0125 11.8125H13.8625C13.973 11.8125 14.0625 11.723 14.0625 11.6125V2.1875C14.0625 1.91136 13.8386 1.6875 13.5625 1.6875H6.1375C6.02704 1.6875 5.9375 1.77704 5.9375 1.8875V2.7375ZM3.1875 5.5625V13.0625H10.1875V5.5625H3.1875ZM2.4375 14.3125C2.16136 14.3125 1.9375 14.0886 1.9375 13.8125V4.8125C1.9375 4.53636 2.16136 4.3125 2.4375 4.3125H10.9375C11.2136 4.3125 11.4375 4.53636 11.4375 4.8125V13.8125C11.4375 14.0886 11.2136 14.3125 10.9375 14.3125H2.4375Z" />
</svg>
