<svg viewBox="0 0 18 18" fill="currentColor" xmlns="http://www.w3.org/2000/svg">
<path fill-rule="evenodd" clip-rule="evenodd" d="M8.62651 13.9861C11.8973 13.9861 14.5486 11.3348 14.5486 8.06401C14.5486 4.79324 11.8973 2.14192 8.62651 2.14192C5.35574 2.14192 2.70442 4.79324 2.70442 8.06401C2.70442 11.3348 5.35574 13.9861 8.62651 13.9861ZM14.1204 13.1712L16.552 15.6035C16.8567 15.9156 16.8507 16.4155 16.5387 16.7201C16.2267 17.0248 15.7267 17.0188 15.4221 16.7068L12.9277 14.21C11.6679 15.0941 10.1656 15.5673 8.62651 15.5649C4.48282 15.5649 1.125 12.2071 1.125 8.06401C1.125 3.92092 4.48342 0.5625 8.62651 0.5625C12.769 0.5625 16.1274 3.92092 16.1274 8.06401C16.1274 10.0367 15.3658 11.8316 14.1204 13.1712Z" />
</svg>
