<svg viewBox="0 0 32 32" fill="none" xmlns="http://www.w3.org/2000/svg">
<path d="M3.4 3C3.17909 3 3 3.17909 3 3.4V5.4C3 5.62091 3.17909 5.8 3.4 5.8H28.6C28.8209 5.8 29 5.62091 29 5.4V3.4C29 3.17909 28.8209 3 28.6 3H3.4ZM15.6963 8.15437C15.8559 7.96812 16.1441 7.96812 16.3037 8.15437L21.434 14.1397C21.6564 14.3992 21.4721 14.8 21.1303 14.8H17.4004V28.6C17.4004 28.8209 17.2213 29 17.0004 29H15.0004C14.7795 29 14.6004 28.8209 14.6004 28.6V14.8H10.8697C10.5279 14.8 10.3436 14.3992 10.566 14.1397L15.6963 8.15437Z" fill="#101114"/>
</svg>
