<svg  viewBox="0 0 32 32" fill="currentColor" xmlns="http://www.w3.org/2000/svg">
<path d="M16.0006 23.2329L25.051 14.1825C25.2072 14.0263 25.4604 14.0263 25.6166 14.1825L27.0309 15.5967C27.1871 15.7529 27.1871 16.0062 27.0309 16.1624L16.7071 26.4862C16.3166 26.8767 15.6834 26.8767 15.2929 26.4862L4.96896 16.161C4.81275 16.0048 4.81275 15.7515 4.96896 15.5953L6.38318 14.1811C6.53939 14.0249 6.79265 14.0249 6.94886 14.1811L16.0006 23.2329Z"/>
<path d="M16.0006 14.3898L25.051 5.33949C25.2072 5.18328 25.4604 5.18328 25.6166 5.33949L27.0309 6.7537C27.1871 6.90991 27.1871 7.16318 27.0309 7.31939L16.7071 17.6431C16.3166 18.0337 15.6834 18.0337 15.2929 17.6431L4.96896 7.318C4.81275 7.16179 4.81275 6.90853 4.96896 6.75232L6.38318 5.3381C6.53939 5.18189 6.79265 5.18189 6.94886 5.3381L16.0006 14.3898Z"/>
</svg>
