<svg viewBox="0 0 32 32" fill="none" xmlns="http://www.w3.org/2000/svg">
<path d="M20.7998 3.4V11.2H28.6C28.8209 11.2 29 11.3791 29 11.6V13.6C29 13.8209 28.8209 14 28.6 14H19C18.4477 14 17.9998 13.5523 17.9998 13V3.4C17.9998 3.17909 18.1789 3 18.3998 3H20.3998C20.6207 3 20.7998 3.17909 20.7998 3.4ZM13.0002 18C13.0174 18 13.0345 18.0004 13.0515 18.0013C13.5799 18.028 14.0002 18.4649 14.0002 19V28.6C14.0002 28.8209 13.8211 29 13.6002 29H11.6002C11.3793 29 11.2002 28.8209 11.2002 28.6V20.8H3.4C3.17909 20.8 3 20.6209 3 20.4V18.4C3 18.1791 3.17909 18 3.4 18H13.0002Z" fill="#101114"/>
</svg>
