<svg viewBox="0 0 32 32" fill="none" xmlns="http://www.w3.org/2000/svg">
<path d="M28.0514 3.0013C28.5799 3.02799 29.0001 3.46491 29.0001 4V13.6C29.0001 13.8209 28.8211 14 28.6001 14H26.6001C26.3792 14 26.2001 13.8209 26.2001 13.6V5.8L18.4 5.8C18.179 5.8 18 5.62091 18 5.4V3.4C18 3.17909 18.179 3 18.4 3C21.6032 3 28.0514 3.0013 28.0514 3.0013ZM5.79976 26.2V18.4C5.79976 18.1791 5.62067 18 5.39976 18H3.39976C3.17884 18 2.99976 18.1791 2.99976 18.4V28C2.99976 28.5275 3.40816 28.9596 3.92601 28.9973C3.94619 28.9988 3.96653 28.9997 3.98703 28.9999C3.99126 29 3.99551 29 3.99976 29H13.6C13.8209 29 14 28.8209 14 28.6V26.6C14 26.3791 13.8209 26.2 13.6 26.2H5.79976Z" fill="#101114"/>
</svg>
