<svg  viewBox="0 0 32 32" fill="none" xmlns="http://www.w3.org/2000/svg">
<path d="M3.4 7.80006C3.17909 7.80006 3 7.62098 3 7.40006V5.40006C3 5.17915 3.17909 5.00006 3.4 5.00006H28.6C28.8209 5.00006 29 5.17915 29 5.40006V7.40006C29 7.62098 28.8209 7.80006 28.6 7.80006H3.4ZM3.4 27C3.17909 27 3 26.8209 3 26.6V24.6C3 24.3791 3.17909 24.2 3.4 24.2H28.6C28.8209 24.2 29 24.3791 29 24.6V26.6C29 26.8209 28.8209 27 28.6 27H3.4ZM3 17C3 17.221 3.17909 17.4 3.4 17.4H18.6C18.8209 17.4 19 17.221 19 17V15C19 14.7791 18.8209 14.6 18.6 14.6H3.4C3.17909 14.6 3 14.7791 3 15V17ZM28.3752 19.818L23.2441 16.3309C23.0106 16.1722 23.0106 15.8279 23.2441 15.6692L28.3752 12.1821C28.6407 12.0016 29 12.1918 29 12.5129V19.4872C29 19.8083 28.6407 19.9985 28.3752 19.818Z" fill="#101114"/>
</svg>
