<svg  viewBox="0 0 32 32" fill="currentColor" xmlns="http://www.w3.org/2000/svg">
<path d="M22.1009 5.6893C21.9447 5.53309 21.6914 5.53309 21.5352 5.6893L20.121 7.10352C19.9648 7.25972 19.9648 7.51299 20.121 7.6692L23.6518 11.2L3.39982 11.2C3.17891 11.2 2.99982 11.3791 2.99982 11.6V13.6C2.99982 13.8209 3.17891 14 3.39982 14L27.9974 14C28.8883 14 29.3344 12.9228 28.7045 12.2929L22.1009 5.6893ZM9.89821 26.3107C10.0544 26.4669 10.3077 26.4669 10.4639 26.3107L11.8781 24.8965C12.0343 24.7403 12.0343 24.487 11.8781 24.3308L8.34735 20.8L28.5993 20.8C28.8202 20.8 28.9993 20.6209 28.9993 20.4V18.4C28.9993 18.1791 28.8202 18 28.5993 18L4.00176 18C3.11086 18 2.66469 19.0772 3.29465 19.7071L9.89821 26.3107Z"/>
</svg>
