<svg viewBox="0 0 32 32" fill="currentColor" xmlns="http://www.w3.org/2000/svg">
<g id="suggest/check-circle">
<g id="Union">
<path d="M16 27.5C22.3513 27.5 27.5 22.3513 27.5 16C27.5 9.64872 22.3513 4.5 16 4.5C9.64872 4.5 4.5 9.64872 4.5 16C4.5 22.3513 9.64872 27.5 16 27.5ZM16 30C8.26801 30 2 23.732 2 16C2 8.26801 8.26801 2 16 2C23.732 2 30 8.26801 30 16C30 23.732 23.732 30 16 30ZM14.3452 21.0655C14.6104 21.0729 14.878 20.9754 15.0804 20.773L23.2828 12.5706C23.439 12.4143 23.439 12.1611 23.2828 12.0049L22.0808 10.8028C21.9245 10.6466 21.6713 10.6466 21.5151 10.8028L14.3722 17.9456L10.485 14.0584C10.3288 13.9022 10.0756 13.9022 9.91935 14.0584L8.71727 15.2605C8.56106 15.4167 8.56106 15.67 8.71727 15.8262L13.664 20.7729C13.8527 20.9616 14.098 21.0591 14.3452 21.0655Z"/>
</g>
</g>
</svg>
