<svg viewBox="0 0 32 32" fill="currentColor" xmlns="http://www.w3.org/2000/svg">
<g id="suggest/stop">
<g id="Union">
<path d="M24.6475 23.5812L5.91673 10.4658C5.0137 12.1077 4.5 13.9938 4.5 16C4.5 22.3513 9.64872 27.5 16 27.5C19.447 27.5 22.5397 25.9835 24.6475 23.5812ZM26.0831 21.5345C26.9862 19.8926 27.5 18.0063 27.5 16C27.5 9.64872 22.3513 4.5 16 4.5C12.5529 4.5 9.46002 6.01666 7.35228 8.41908L26.0831 21.5345ZM30 16C30 23.732 23.732 30 16 30C8.26801 30 2 23.732 2 16C2 8.26801 8.26801 2 16 2C23.732 2 30 8.26801 30 16Z"/>
</g>
</g>
</svg>
