<svg  viewBox="0 0 32 32" fill="currentColor" xmlns="http://www.w3.org/2000/svg">
<path d="M3.14397 7.49289C2.75344 7.88341 2.75344 8.51658 3.14397 8.9071L7.10377 12.8669C7.25997 13.0231 7.51324 13.0231 7.66945 12.8669L9.08366 11.4527C9.23987 11.2965 9.23987 11.0432 9.08366 10.887L7.79659 9.59993H19.049C23.0807 9.59993 26.349 12.8683 26.349 16.8999C26.349 20.9316 23.0807 24.1999 19.049 24.1999H6.74903V26.9999H19.049C24.6271 26.9999 29.149 22.478 29.149 16.8999C29.149 11.3219 24.6271 6.79993 19.049 6.79993H7.79794L9.08505 5.51283C9.24126 5.35662 9.24126 5.10335 9.08505 4.94714L7.67083 3.53293C7.51462 3.37672 7.26136 3.37672 7.10515 3.53293L3.14397 7.49289Z"/>
</svg>
