<svg  viewBox="0 0 32 32" fill="currentColor" xmlns="http://www.w3.org/2000/svg">
<path d="M16.3439 10.7178L11.2129 7.23063C10.9793 7.07191 10.9793 6.7277 11.2129 6.56897L16.3439 3.08182C16.6095 2.90133 16.9687 3.09155 16.9687 3.41264V5.66893H24.8C27.1196 5.66893 29 7.54934 29 9.86893V13.6689C29 13.8898 28.8209 14.0689 28.6 14.0689H26.6C26.3791 14.0689 26.2 13.8898 26.2 13.6689V10.4689C26.2 9.36436 25.3046 8.46893 24.2 8.46893H16.9687V10.387C16.9687 10.7081 16.6095 10.8983 16.3439 10.7178ZM5.79976 15.5038L20.8894 15.5038V26.188H5.79976V15.5038ZM22.6894 12.7038H3.99976C3.44747 12.7038 2.99976 13.1516 2.99976 13.7038V27.988C2.99976 28.5403 3.44747 28.988 3.99976 28.988H22.6894C23.2417 28.988 23.6894 28.5403 23.6894 27.988V13.7038C23.6894 13.1516 23.2417 12.7038 22.6894 12.7038Z"/>
</svg>
