<svg xmlns="http://www.w3.org/2000/svg" width="24" height="24" viewBox="0 0 24 24" fill="none">
  <path d="M24 12C24 18.6274 18.6274 24 12 24C5.37258 24 0 18.6274 0 12C0 5.37258 5.37258 0 12 0C18.6274 0 24 5.37258 24 12ZM7.2423 8.27249C7.1084 8.40639 7.1084 8.62347 7.2423 8.75737L10.485 12.0001L7.24235 15.2427C7.10845 15.3766 7.10845 15.5937 7.24235 15.7276L8.2727 16.7579C8.4066 16.8918 8.62368 16.8918 8.75758 16.7579L12.0002 13.5153L15.2427 16.7578C15.3766 16.8917 15.5937 16.8917 15.7276 16.7578L16.7579 15.7274C16.8918 15.5935 16.8918 15.3764 16.7579 15.2425L13.5154 12.0001L16.758 8.75751C16.8919 8.62361 16.8919 8.40653 16.758 8.27263L15.7276 7.24228C15.5937 7.10838 15.3766 7.10838 15.2428 7.24228L12.0002 10.4848L8.75753 7.24214C8.62363 7.10824 8.40655 7.10824 8.27265 7.24214L7.2423 8.27249Z" fill="#BE283A"/>
</svg>