<svg xmlns="http://www.w3.org/2000/svg" width="24" height="24" viewBox="0 0 24 24" fill="none">
  <path d="M24 12C24 18.6274 18.6274 24 12 24C5.37258 24 0 18.6274 0 12C0 5.37258 5.37258 0 12 0C18.6274 0 24 5.37258 24 12ZM10.5816 16.3419C10.8089 16.3482 11.0383 16.2646 11.2118 16.0911L18.2424 9.06048C18.3763 8.92659 18.3763 8.7095 18.2424 8.57561L17.2121 7.54525C17.0782 7.41136 16.8611 7.41136 16.7272 7.54525L10.6048 13.6677L7.27289 10.3358C7.13899 10.2019 6.92191 10.2019 6.78801 10.3358L5.75766 11.3661C5.62376 11.5 5.62376 11.7171 5.75766 11.851L9.99775 16.0911C10.1595 16.2528 10.3697 16.3364 10.5816 16.3419Z" fill="#8B60F7"/>
</svg>