<svg xmlns="http://www.w3.org/2000/svg" viewBox="0 0 32 32" fill="currentColor">
  <path d="M10.875 2.58545C11.5654 2.58545 12.125 3.14509 12.125 3.83545V5.21045H19.875V3.83545C19.875 3.14509 20.4346 2.58545 21.125 2.58545C21.8154 2.58545 22.375 3.14509 22.375 3.83545V5.21045H27.5C28.7426 5.21045 29.75 6.21781 29.75 7.46045V26.8018C29.75 28.0444 28.7426 29.0518 27.5 29.0518H4.5C3.25736 29.0518 2.25 28.0444 2.25 26.8018V7.46045C2.25 6.21781 3.25736 5.21045 4.5 5.21045H9.625V3.83545C9.625 3.14509 10.1846 2.58545 10.875 2.58545ZM19.875 7.71045H12.125V8.5C12.125 9.19036 11.5654 9.75 10.875 9.75C10.1846 9.75 9.625 9.19036 9.625 8.5V7.71045H4.75V11.7104H27.25V7.71045H22.375V8.5C22.375 9.19036 21.8154 9.75 21.125 9.75C20.4346 9.75 19.875 9.19036 19.875 8.5V7.71045ZM4.75 14.2104V26.5518H27.25V14.2104H4.75Z" />
</svg>
