<svg xmlns="http://www.w3.org/2000/svg" viewBox="0 0 32 32" fill="currentColor">
  <path d="M17.25 3.90317C17.25 3.68226 17.0709 3.50317 16.85 3.50317H15.15C14.9291 3.50317 14.75 3.68226 14.75 3.90317L14.75 18.8102L10.9805 15.0407C10.8243 14.8845 10.571 14.8845 10.4148 15.0407L9.21275 16.2428C9.05654 16.399 9.05654 16.6522 9.21275 16.8085L15.2931 22.8898C15.5487 23.1454 15.9083 23.2337 16.2357 23.1547C16.4088 23.113 16.573 23.0247 16.7081 22.8896L22.7884 16.8086C22.9446 16.6524 22.9446 16.3992 22.7884 16.243L21.5863 15.0409C21.4301 14.8847 21.1769 14.8847 21.0206 15.0409L17.25 18.8115L17.25 3.90317ZM4.6499 28.3533C4.09762 28.3533 3.6499 27.9056 3.6499 27.3533V22.5033C3.6499 22.2824 3.82899 22.1033 4.0499 22.1033H5.7499C5.97082 22.1033 6.1499 22.2824 6.1499 22.5033V25.8533H25.8499V22.5033C25.8499 22.2824 26.029 22.1033 26.2499 22.1033H27.9499C28.1708 22.1033 28.3499 22.2824 28.3499 22.5033V27.3533C28.3499 27.9056 27.9022 28.3533 27.3499 28.3533H4.6499Z" />
</svg>
