<svg xmlns="http://www.w3.org/2000/svg" viewBox="0 0 32 32" fill="currentColor">
  <path d="M3.65039 27.3501C3.65039 27.9024 4.09811 28.3501 4.65039 28.3501H17.3744C17.5953 28.3501 17.7744 28.1711 17.7744 27.9501V26.2501C17.7744 26.0292 17.5953 25.8501 17.3744 25.8501H6.15039L6.15039 6.15015L17.3744 6.15015C17.5953 6.15015 17.7744 5.97106 17.7744 5.75015V4.05015C17.7744 3.82923 17.5953 3.65015 17.3744 3.65015H4.65039C4.09811 3.65015 3.65039 4.09786 3.65039 4.65015V27.3501ZM22.0897 22.788C21.9335 22.9442 21.6802 22.9442 21.524 22.788L20.3219 21.586C20.1657 21.4297 20.1657 21.1765 20.3219 21.0203L24.0922 17.2501L8.80039 17.2501C8.57948 17.2501 8.40039 17.071 8.40039 16.85V15.1501C8.40039 14.9291 8.57948 14.7501 8.80039 14.7501L24.0923 14.7501L20.3221 10.9799C20.1659 10.8237 20.1659 10.5704 20.3221 10.4142L21.5242 9.21213C21.6804 9.05592 21.9337 9.05591 22.0899 9.21212L28.1708 15.2927C28.2815 15.4034 28.3608 15.5335 28.4087 15.6721C28.5303 16.0227 28.451 16.4275 28.171 16.7075L22.0897 22.788Z" />
</svg>
