<svg xmlns="http://www.w3.org/2000/svg" viewBox="0 0 32 32" fill="currentColor">
  <path d="M3.2721 5.25211C3.11589 5.0959 3.11589 4.84263 3.2721 4.68643L4.47418 3.48434C4.63039 3.32813 4.88366 3.32814 5.03987 3.48435L28.5158 26.9603C28.672 27.1165 28.672 27.3698 28.5158 27.526L27.3137 28.7281C27.1575 28.8843 26.9043 28.8843 26.748 28.7281L22.1208 24.1008C17.2489 26.9128 10.8361 26.0934 6.86221 21.6426L2.41886 16.666C2.08011 16.2866 2.08011 15.7134 2.41886 15.334L6.8622 10.3575C7.10265 10.0882 7.35202 9.83215 7.60944 9.58945L3.2721 5.25211ZM9.37832 11.3583C9.15337 11.5671 8.93597 11.7885 8.72705 12.0225L5.17569 16L8.72705 19.9775C11.7295 23.3403 16.4811 24.0986 20.2724 22.2524L18.2203 20.2003C17.5576 20.5512 16.802 20.75 16 20.75C13.3766 20.75 11.25 18.6234 11.25 16C11.25 15.198 11.4488 14.4424 11.7998 13.7798L9.37832 11.3583ZM13.7643 15.7444C13.7549 15.8283 13.75 15.9136 13.75 16C13.75 17.2427 14.7573 18.25 16 18.25C16.0864 18.25 16.1717 18.2452 16.2557 18.2357L13.7643 15.7444ZM11.2143 7.23449L13.1645 9.18475C16.6609 8.12732 20.6396 9.07323 23.2728 12.0225L26.8242 16L23.5957 19.6159L25.3663 21.3865L29.581 16.666C29.9198 16.2866 29.9198 15.7134 29.581 15.334L25.1377 10.3574C21.5176 6.30296 15.8736 5.26197 11.2143 7.23449ZM15.2835 11.3037L20.6963 16.7165C20.7317 16.4828 20.75 16.2436 20.75 16C20.75 13.3767 18.6233 11.25 16 11.25C15.7564 11.25 15.5172 11.2684 15.2835 11.3037Z" />
</svg>
