<svg xmlns="http://www.w3.org/2000/svg" viewBox="0 0 32 32" fill="currentColor">
  <path d="M16 1.79492C8.72591 1.79492 2.8291 7.69173 2.8291 14.9658V15.596C2.8291 16.2863 3.38875 16.846 4.0791 16.846C4.76946 16.846 5.3291 16.2863 5.3291 15.596V14.9658C5.3291 9.07244 10.1066 4.29492 16 4.29492C21.8934 4.29492 26.6709 9.07245 26.6709 14.9658V22.4992C26.6709 23.1895 27.2305 23.7492 27.9209 23.7492C28.6113 23.7492 29.1709 23.1895 29.1709 22.4992V14.9658C29.1709 7.69174 23.2741 1.79492 16 1.79492ZM15.9888 6.45654C11.4606 6.45654 7.68724 9.92525 7.30695 14.4374L6.98378 18.2718C6.87607 19.5498 6.53287 20.7968 5.97151 21.9499L5.15226 23.6328C4.85009 24.2535 5.10832 25.0017 5.72903 25.3039C6.34975 25.606 7.09789 25.3478 7.40006 24.7271L8.21931 23.0442C8.91563 21.6138 9.34134 20.067 9.47495 18.4818L9.79811 14.6474C10.0693 11.4299 12.7599 8.95654 15.9888 8.95654C19.2138 8.95654 21.9224 11.4821 22.1852 14.7187C22.4701 18.2257 22.213 21.7961 21.4177 25.2206L21.0111 26.9717C20.8549 27.6442 21.2735 28.3159 21.9459 28.4721C22.6184 28.6283 23.2901 28.2097 23.4463 27.5372L23.8529 25.7861C24.7072 22.1072 24.9825 18.2777 24.677 14.5164C24.3106 10.004 20.5382 6.45654 15.9888 6.45654ZM11.4347 15.0184C11.6515 12.6413 13.6448 10.8215 16.0317 10.8215C18.4699 10.8215 20.4877 12.7178 20.6389 15.1513L20.7265 16.5602C20.931 19.8512 20.4543 23.1489 19.3262 26.2472L18.1847 29.3825C17.9485 30.0312 17.2311 30.3656 16.5824 30.1294C15.9337 29.8933 15.5993 29.1759 15.8355 28.5272L16.9771 25.3919C17.9875 22.6168 18.4145 19.663 18.2313 16.7153L18.1437 15.3063C18.0744 14.1908 17.1494 13.3215 16.0317 13.3215C14.9375 13.3215 14.0238 14.1558 13.9244 15.2455L13.6453 18.3054C13.3863 21.1466 12.6161 23.9177 11.3719 26.4851L10.7028 27.8657C10.4017 28.487 9.65404 28.7465 9.03279 28.4455C8.41154 28.1444 8.15198 27.3967 8.45305 26.7755L9.12214 25.3948C10.235 23.0984 10.9239 20.6198 11.1557 18.0784L11.4347 15.0184ZM17.2846 16.0763C17.258 15.3864 16.6771 14.8488 15.9873 14.8755C15.2975 14.9021 14.7598 15.4829 14.7865 16.1728C14.9394 20.1308 14.0082 24.0554 12.0936 27.5229L11.7014 28.2331C11.3677 28.8374 11.5871 29.5979 12.1914 29.9316C12.7958 30.2653 13.5562 30.0459 13.8899 29.4416L14.2821 28.7313C16.4169 24.8652 17.4551 20.4894 17.2846 16.0763Z" />
</svg>
