<svg xmlns="http://www.w3.org/2000/svg" viewBox="0 0 32 32" fill="currentColor">
  <path d="M8.5998 16.0001C8.5998 17.3256 7.52529 18.4001 6.1998 18.4001C4.87432 18.4001 3.7998 17.3256 3.7998 16.0001C3.7998 14.6746 4.87432 13.6001 6.1998 13.6001C7.52529 13.6001 8.5998 14.6746 8.5998 16.0001ZM18.4001 16.0001C18.4001 17.3256 17.3256 18.4001 16.0001 18.4001C14.6746 18.4001 13.6001 17.3256 13.6001 16.0001C13.6001 14.6746 14.6746 13.6001 16.0001 13.6001C17.3256 13.6001 18.4001 14.6746 18.4001 16.0001ZM25.7999 18.4001C27.1254 18.4001 28.1999 17.3256 28.1999 16.0001C28.1999 14.6746 27.1254 13.6001 25.7999 13.6001C24.4744 13.6001 23.3999 14.6746 23.3999 16.0001C23.3999 17.3256 24.4744 18.4001 25.7999 18.4001Z" />
</svg>
