<svg xmlns="http://www.w3.org/2000/svg" viewBox="0 0 32 32" fill="currentColor">
  <path d="M18.4 6.20005C18.4 7.52553 17.3255 8.60005 16 8.60005C14.6746 8.60005 13.6 7.52553 13.6 6.20005C13.6 4.87457 14.6746 3.80005 16 3.80005C17.3255 3.80005 18.4 4.87457 18.4 6.20005ZM15.9999 18.4003C14.6744 18.4003 13.5999 17.3258 13.5999 16.0003C13.5999 14.6749 14.6744 13.6003 15.9999 13.6003C17.3253 13.6003 18.3999 14.6749 18.3999 16.0003C18.3999 17.3258 17.3253 18.4003 15.9999 18.4003ZM16 28.2001C17.3255 28.2001 18.4 27.1256 18.4 25.8001C18.4 24.4747 17.3255 23.4001 16 23.4001C14.6746 23.4001 13.6 24.4747 13.6 25.8001C13.6 27.1256 14.6746 28.2001 16 28.2001Z" />
</svg>
