<svg xmlns="http://www.w3.org/2000/svg" viewBox="0 0 32 32" fill="currentColor">
  <path d="M5.94995 15.9999C5.94995 10.4501 10.4489 5.95117 15.9987 5.95117C19.5163 5.95117 22.6138 7.7586 24.4098 10.4993H22.3985C22.1776 10.4993 21.9985 10.6784 21.9985 10.8993V12.5993C21.9985 12.8202 22.1776 12.9993 22.3985 12.9993L27.9985 13C28.5508 13 28.9985 12.5523 28.9985 12V6.4C28.9985 6.17909 28.8194 6 28.5985 6H26.8985C26.6776 6 26.4985 6.17909 26.4985 6.4V9.12582C24.2577 5.70989 20.3929 3.45117 15.9987 3.45117C9.0682 3.45117 3.44995 9.06942 3.44995 15.9999C3.44995 22.9303 9.0682 28.5486 15.9987 28.5486C21.6447 28.5486 26.4171 24.8208 27.9943 19.6943C28.0593 19.4831 27.9331 19.2628 27.72 19.2046L26.0799 18.7572C25.8668 18.699 25.6477 18.825 25.581 19.0356C24.2941 23.1024 20.4889 26.0486 15.9987 26.0486C10.4489 26.0486 5.94995 21.5496 5.94995 15.9999Z" />
</svg>
