<svg xmlns="http://www.w3.org/2000/svg" viewBox="0 0 32 32" fill="currentColor">
  <path d="M16.7069 3.30681C16.3164 2.91628 15.6832 2.91628 15.2927 3.30681L10.6258 7.97371C10.4696 8.12992 10.4696 8.38319 10.6258 8.5394L11.8279 9.74148C11.9841 9.89769 12.2374 9.89769 12.3936 9.74148L14.7498 7.38529L14.7498 21.5102C14.7498 21.7311 14.9288 21.9102 15.1498 21.9102H16.8498C17.0707 21.9102 17.2498 21.7311 17.2498 21.5102V7.38543L19.6062 9.74191C19.7625 9.89812 20.0157 9.89812 20.1719 9.74191L21.374 8.53983C21.5302 8.38362 21.5302 8.13036 21.374 7.97415L16.7069 3.30681ZM10.9251 14.05C10.9251 14.2709 10.746 14.45 10.5251 14.45H7.1001V26.75H24.9001V14.45H21.4751C21.2542 14.45 21.0751 14.2709 21.0751 14.05V12.35C21.0751 12.1291 21.2542 11.95 21.4751 11.95H25.7501C26.6614 11.95 27.4001 12.6887 27.4001 13.6V27.6C27.4001 28.5113 26.6614 29.25 25.7501 29.25H6.2501C5.33882 29.25 4.6001 28.5113 4.6001 27.6V13.6C4.6001 12.6887 5.33883 11.95 6.2501 11.95H10.5251C10.746 11.95 10.9251 12.1291 10.9251 12.35V14.05Z" />
</svg>
