<svg xmlns="http://www.w3.org/2000/svg" viewBox="0 0 28 28" fill="currentColor">
  <path d="M17.0193 11.1031L23.7704 12.0841L18.8853 16.8459L20.0385 23.5698L14.0001 20.3952L7.96172 23.5698L9.11495 16.8459L4.22978 12.0841L10.9809 11.1031L14.0001 4.98552L17.0193 11.1031ZM9.32076 8.81807L0.862545 10.0471C0.0423244 10.1663 -0.285187 11.1743 0.30833 11.7528L6.42875 17.7187L4.98392 26.1428C4.8438 26.9597 5.70124 27.5826 6.43486 27.197L14.0001 23.2197L21.5654 27.197C22.299 27.5826 23.1564 26.9597 23.0163 26.1428L21.5715 17.7187L27.6919 11.7528C28.2854 11.1743 27.9579 10.1663 27.1377 10.0471L18.6795 8.81807L14.8969 1.15363C14.53 0.410381 13.4702 0.410379 13.1034 1.15362L9.32076 8.81807Z" />
</svg>
