<svg xmlns="http://www.w3.org/2000/svg" viewBox="0 0 32 32" fill="currentColor">
  <path d="M21.7742 4.76151L16.0861 6.54692L22.3553 6.55088L21.7742 4.76151ZM21.4507 2.24281C22.5234 1.90611 23.6671 2.49623 24.0144 3.56558L24.9841 6.55172H27.5C28.7426 6.55172 29.75 7.55908 29.75 8.80172V26.8017C29.75 28.0444 28.7426 29.0517 27.5 29.0517H4.5C3.25736 29.0517 2.25 28.0444 2.25 26.8017V8.80172C2.25 7.55908 3.25736 6.55172 4.5 6.55172H7.72279L21.4507 2.24281ZM4.75 9.05172V26.5517H27.25V21.5517H24.125C22.0431 21.5517 20.25 19.9295 20.25 17.8017C20.25 15.6739 22.0431 14.0517 24.125 14.0517H27.25V9.05172H25.7959L25.7963 9.05305L4.75 9.05172ZM27.25 16.5517H24.125C23.3074 16.5517 22.75 17.1681 22.75 17.8017C22.75 18.4353 23.3074 19.0517 24.125 19.0517H27.25V16.5517Z" />
</svg>
