<svg xmlns="http://www.w3.org/2000/svg" viewBox="0 0 32 32" fill="currentColor">
  <path d="M14.1468 4.03796C17.0312 1.15353 21.7078 1.15352 24.5922 4.03796C27.4767 6.9224 27.4767 11.599 24.5922 14.4834L19.538 19.5377L17.8532 17.8529L22.9075 12.7987C24.8615 10.8447 24.8615 7.67669 22.9075 5.72271C20.9535 3.76874 17.7855 3.76874 15.8315 5.72272L7.40774 14.1472C4.52331 17.0317 4.52331 21.7082 7.40774 24.5927C10.2922 27.4771 14.9688 27.4771 17.8532 24.5927L24.4779 17.968C24.6341 17.8118 24.8873 17.8118 25.0435 17.968L26.1626 19.0871C26.3188 19.2433 26.3188 19.4966 26.1626 19.6528L19.538 26.2774C15.7231 30.0923 9.53789 30.0923 5.72299 26.2774C1.90809 22.4625 1.90809 16.2774 5.72299 12.4625L14.1468 4.03796ZM10.7772 17.5161L16.8964 11.3968C17.0526 11.2406 17.0526 10.9874 16.8964 10.8312L15.7773 9.71208C15.6211 9.55587 15.3679 9.55587 15.2117 9.71208L9.09243 15.8313C7.13846 17.7853 7.13846 20.9533 9.09243 22.9073C11.0464 24.8612 14.2144 24.8612 16.1684 22.9073L19.538 19.5377L17.8532 17.8529L14.4836 21.2225C13.4601 22.246 11.8007 22.246 10.7772 21.2225C9.75367 20.199 9.75367 18.5396 10.7772 17.5161Z" />
</svg>
