<svg xmlns="http://www.w3.org/2000/svg" viewBox="0 0 32 32" fill="currentColor">
  <path d="M10.9671 10.2815L13.2853 6.5752H18.8548L21.173 10.2815H27.5701V25.4249H4.57007V10.2815H10.9671ZM13.1468 4.0752C12.3713 4.0752 11.6505 4.47456 11.2392 5.13205L9.58208 7.7815H4.32007C3.07743 7.7815 2.07007 8.78886 2.07007 10.0315V25.6749C2.07007 26.9176 3.07743 27.9249 4.32007 27.9249H27.8201C29.0627 27.9249 30.0701 26.9176 30.0701 25.6749V10.0315C30.0701 8.78885 29.0627 7.7815 27.8201 7.7815H22.5581L20.9009 5.13205C20.4897 4.47456 19.7688 4.0752 18.9933 4.0752H13.1468ZM16 11.5327C12.8243 11.5327 10.25 14.107 10.25 17.2827C10.25 20.4584 12.8243 23.0327 16 23.0327C19.1758 23.0327 21.7501 20.4584 21.7501 17.2827C21.7501 14.107 19.1758 11.5327 16 11.5327ZM12.75 17.2827C12.75 15.4877 14.205 14.0327 16 14.0327C17.7951 14.0327 19.2501 15.4877 19.2501 17.2827C19.2501 19.0777 17.7951 20.5327 16 20.5327C14.205 20.5327 12.75 19.0777 12.75 17.2827Z" />
</svg>
