<svg xmlns="http://www.w3.org/2000/svg" viewBox="0 0 32 32" fill="currentColor">
  <path d="M7.60712 26.2198L8.42059 23.5297L7.33938 22.4699C5.53497 20.7012 4.5 18.4318 4.5 16C4.5 10.8478 9.34423 6.15332 16 6.15332C22.6558 6.15332 27.5 10.8478 27.5 16C27.5 21.1522 22.6558 25.8467 16 25.8467C15.3321 25.8467 14.6791 25.7979 14.0453 25.7048C13.2126 25.5824 12.4126 25.3834 11.6548 25.1175L10.6937 24.7803L7.60712 26.2198ZM6.63577 29.4321C8.66173 28.4861 10.8271 27.4765 10.8271 27.4765C11.7357 27.7953 12.6912 28.0326 13.6818 28.1782C14.4358 28.289 15.2103 28.3467 16 28.3467C23.732 28.3467 30 22.8189 30 16C30 9.18112 23.732 3.65332 16 3.65332C8.26801 3.65332 2 9.18112 2 16C2 19.1739 3.35794 22.068 5.58939 24.2553L4.11373 29.1353C3.91325 29.7983 4.59204 30.387 5.21953 30.0937L6.63577 29.4321ZM22.0998 17.8C23.0939 17.8 23.8998 16.9941 23.8998 16C23.8998 15.0058 23.0939 14.2 22.0998 14.2C21.1057 14.2 20.2998 15.0058 20.2998 16C20.2998 16.9941 21.1057 17.8 22.0998 17.8ZM17.8002 16C17.8002 16.9941 16.9943 17.8 16.0002 17.8C15.0061 17.8 14.2002 16.9941 14.2002 16C14.2002 15.0058 15.0061 14.2 16.0002 14.2C16.9943 14.2 17.8002 15.0058 17.8002 16ZM9.89961 17.8C10.8937 17.8 11.6996 16.9941 11.6996 16C11.6996 15.0058 10.8937 14.2 9.89961 14.2C8.9055 14.2 8.09961 15.0058 8.09961 16C8.09961 16.9941 8.9055 17.8 9.89961 17.8Z" />
</svg>
