<svg xmlns="http://www.w3.org/2000/svg" viewBox="0 0 32 32" fill="currentColor">
  <path d="M8.42059 23.5297L7.60712 26.2198L10.6937 24.7803L11.6548 25.1175C12.4126 25.3834 13.2126 25.5824 14.0453 25.7048C14.6791 25.7979 15.3321 25.8467 16 25.8467C22.6558 25.8467 27.5 21.1522 27.5 16C27.5 10.8478 22.6558 6.15332 16 6.15332C9.34423 6.15332 4.5 10.8478 4.5 16C4.5 18.4318 5.53497 20.7012 7.33938 22.4699L8.42059 23.5297ZM10.8271 27.4765C10.8271 27.4765 8.66173 28.4861 6.63577 29.4321L5.21953 30.0937C4.59204 30.387 3.91325 29.7983 4.11373 29.1353L5.58939 24.2553C3.35794 22.068 2 19.1739 2 16C2 9.18112 8.26801 3.65332 16 3.65332C23.732 3.65332 30 9.18112 30 16C30 22.8189 23.732 28.3467 16 28.3467C15.2103 28.3467 14.4358 28.289 13.6818 28.1782C12.6912 28.0326 11.7357 27.7953 10.8271 27.4765ZM10.5 16.85C10.5 17.0709 10.6791 17.25 10.9 17.25H14.75V21.1C14.75 21.3209 14.9291 21.5 15.15 21.5H16.85C17.0709 21.5 17.25 21.3209 17.25 21.1V17.25H21.1C21.3209 17.25 21.5 17.0709 21.5 16.85V15.15C21.5 14.9291 21.3209 14.75 21.1 14.75H17.25V10.9C17.25 10.6791 17.0709 10.5 16.85 10.5H15.15C14.9291 10.5 14.75 10.6791 14.75 10.9V14.75H10.9C10.6791 14.75 10.5 14.9291 10.5 15.15V16.85Z" />
</svg>
