<svg xmlns="http://www.w3.org/2000/svg" viewBox="0 0 32 32" fill="currentColor">
  <path d="M4 24.8788V7.12134H28V24.8788H4ZM1.5 6.62134V25.3788C1.5 26.4834 2.39543 27.3788 3.5 27.3788H28.5C29.6046 27.3788 30.5 26.4834 30.5 25.3788V6.62134C30.5 5.51677 29.6046 4.62134 28.5 4.62134H3.5C2.39543 4.62134 1.5 5.51677 1.5 6.62134ZM11.6999 11.3508C11.6999 12.3449 10.894 13.1508 9.89985 13.1508C8.90574 13.1508 8.09985 12.3449 8.09985 11.3508C8.09985 10.3567 8.90574 9.5508 9.89985 9.5508C10.894 9.5508 11.6999 10.3567 11.6999 11.3508ZM9.89985 17.7504C10.894 17.7504 11.6999 16.9445 11.6999 15.9504C11.6999 14.9563 10.894 14.1504 9.89985 14.1504C8.90574 14.1504 8.09985 14.9563 8.09985 15.9504C8.09985 16.9445 8.90574 17.7504 9.89985 17.7504ZM17.8 11.3508C17.8 12.3449 16.9941 13.1508 16 13.1508C15.0058 13.1508 14.2 12.3449 14.2 11.3508C14.2 10.3567 15.0058 9.5508 16 9.5508C16.9941 9.5508 17.8 10.3567 17.8 11.3508ZM16 17.7504C16.9941 17.7504 17.8 16.9445 17.8 15.9504C17.8 14.9563 16.9941 14.1504 16 14.1504C15.0058 14.1504 14.2 14.9563 14.2 15.9504C14.2 16.9445 15.0058 17.7504 16 17.7504ZM23.9 11.3508C23.9 12.3449 23.0942 13.1508 22.1 13.1508C21.1059 13.1508 20.3 12.3449 20.3 11.3508C20.3 10.3567 21.1059 9.5508 22.1 9.5508C23.0942 9.5508 23.9 10.3567 23.9 11.3508ZM22.1 17.7504C23.0942 17.7504 23.9 16.9445 23.9 15.9504C23.9 14.9563 23.0942 14.1504 22.1 14.1504C21.1059 14.1504 20.3 14.9563 20.3 15.9504C20.3 16.9445 21.1059 17.7504 22.1 17.7504ZM9.15 19.9414C8.92909 19.9414 8.75 20.1205 8.75 20.3414V22.0414C8.75 22.2623 8.92909 22.4414 9.15 22.4414H22.85C23.0709 22.4414 23.25 22.2623 23.25 22.0414V20.3414C23.25 20.1205 23.0709 19.9414 22.85 19.9414H9.15Z" />
</svg>
