<svg xmlns="http://www.w3.org/2000/svg" viewBox="0 0 32 32" fill="currentColor">
  <path d="M27.5 16C27.5 22.3513 22.3513 27.5 16 27.5C9.64872 27.5 4.5 22.3513 4.5 16C4.5 9.64872 9.64872 4.5 16 4.5C22.3513 4.5 27.5 9.64872 27.5 16ZM30 16C30 8.26801 23.732 2 16 2C8.26801 2 2 8.26801 2 16C2 23.732 8.26801 30 16 30C23.732 30 30 23.732 30 16ZM11.3333 18.7378C10.8712 18.7378 10.4421 18.9771 10.1991 19.3702C9.95619 19.7632 9.93411 20.2541 10.1408 20.6674L10.142 20.6699L10.1434 20.6726L10.1465 20.6788L10.1544 20.6941C10.1604 20.7056 10.1678 20.7196 10.1767 20.7361C10.1946 20.7691 10.2184 20.8117 10.2484 20.8626C10.3084 20.9644 10.3935 21.1001 10.5057 21.2585C10.729 21.5737 11.0656 21.9874 11.5308 22.401C12.4726 23.2381 13.9429 24.0711 16 24.0711C18.0571 24.0711 19.5274 23.2381 20.4692 22.401C20.9344 21.9874 21.271 21.5737 21.4943 21.2585C21.6065 21.1001 21.6916 20.9644 21.7516 20.8626C21.7816 20.8117 21.8054 20.7691 21.8233 20.7361C21.8322 20.7196 21.8396 20.7056 21.8456 20.6941L21.8535 20.6788L21.8566 20.6726L21.858 20.6699L21.8586 20.6686C21.8597 20.6665 21.8592 20.6674 21.8592 20.6674C22.0659 20.2541 22.0438 19.7632 21.8009 19.3702C21.5579 18.9771 21.1288 18.7378 20.6667 18.7378H11.3333ZM20.6667 11.1372C21.5503 11.1372 22.2667 11.8536 22.2667 12.7372V13.5372C22.2667 14.4209 21.5503 15.1372 20.6667 15.1372C19.783 15.1372 19.0667 14.4209 19.0667 13.5372V12.7372C19.0667 11.8536 19.783 11.1372 20.6667 11.1372ZM12.9332 12.7372C12.9332 11.8536 12.2168 11.1372 11.3332 11.1372C10.4495 11.1372 9.73315 11.8536 9.73315 12.7372V13.5372C9.73315 14.4209 10.4495 15.1372 11.3332 15.1372C12.2168 15.1372 12.9332 14.4209 12.9332 13.5372V12.7372Z" />
</svg>
