<svg xmlns="http://www.w3.org/2000/svg" viewBox="0 0 32 32" fill="currentColor">
  <path d="M20.5 10C20.5 7.51472 18.4853 5.5 16 5.5C13.5147 5.5 11.5 7.51472 11.5 10C11.5 12.4853 13.5147 14.5 16 14.5C18.4853 14.5 20.5 12.4853 20.5 10ZM23 10C23 13.866 19.866 17 16 17C12.134 17 9 13.866 9 10C9 6.13401 12.134 3 16 3C19.866 3 23 6.13401 23 10ZM24.3492 28.7162C24.1758 28.8896 23.9545 28.9861 23.7279 29.0055C23.4435 29.0304 23.1505 28.9341 22.9328 28.7164L19.4003 25.1839C19.2441 25.0276 19.2441 24.7744 19.4003 24.6182L20.6024 23.4161C20.7586 23.2599 21.0118 23.2599 21.168 23.4161L23.6409 25.889L27.9554 21.5745C28.1117 21.4182 28.3649 21.4182 28.5211 21.5745L29.7232 22.7765C29.8794 22.9327 29.8794 23.186 29.7232 23.3422L24.3492 28.7162ZM5.5 26.5H17.7708V29H4C3.44772 29 3 28.5523 3 28V22.1933C3 21.8224 3.20852 21.4829 3.53939 21.3152C8.0826 19.0127 13.1045 18.0456 18.0498 18.4142V20.9218C13.7922 20.5727 9.46592 21.3132 5.5 23.1433V26.5Z" />
</svg>
